<svg xmlns="http://www.w3.org/2000/svg" xmlns:xlink="http://www.w3.org/1999/xlink" width="256" height="256" version="1"><defs><ellipse id="b" cx="17" cy="92" rx="4" ry="4"/><filter id="a" width="200%" height="200%" x="-50%" y="-50%" filterUnits="objectBoundingBox"><feOffset in="SourceAlpha" result="shadowOffsetOuter1"/><feGaussianBlur in="shadowOffsetOuter1" result="shadowBlurOuter1" stdDeviation="2"/><feColorMatrix in="shadowBlurOuter1" values="0 0 0 0 1 0 0 0 0 1 0 0 0 0 1 0 0 0 0.665223053 0"/></filter><ellipse id="d" cx="33" cy="92" rx="4" ry="4"/><filter id="c" width="200%" height="200%" x="-50%" y="-50%" filterUnits="objectBoundingBox"><feOffset in="SourceAlpha" result="shadowOffsetOuter1"/><feGaussianBlur in="shadowOffsetOuter1" result="shadowBlurOuter1" stdDeviation="2"/><feColorMatrix in="shadowBlurOuter1" values="0 0 0 0 1 0 0 0 0 1 0 0 0 0 1 0 0 0 0.665223053 0"/></filter><ellipse id="f" cx="17" cy="92" rx="4" ry="4"/><filter id="e" width="200%" height="200%" x="-50%" y="-50%" filterUnits="objectBoundingBox"><feOffset in="SourceAlpha" result="shadowOffsetOuter1"/><feGaussianBlur in="shadowOffsetOuter1" result="shadowBlurOuter1" stdDeviation="2"/><feColorMatrix in="shadowBlurOuter1" values="0 0 0 0 1 0 0 0 0 1 0 0 0 0 1 0 0 0 0.665223053 0"/></filter><ellipse id="h" cx="33" cy="92" rx="4" ry="4"/><filter id="g" width="200%" height="200%" x="-50%" y="-50%" filterUnits="objectBoundingBox"><feOffset in="SourceAlpha" result="shadowOffsetOuter1"/><feGaussianBlur in="shadowOffsetOuter1" result="shadowBlurOuter1" stdDeviation="2"/><feColorMatrix in="shadowBlurOuter1" values="0 0 0 0 1 0 0 0 0 1 0 0 0 0 1 0 0 0 0.665223053 0"/></filter><ellipse id="j" cx="17" cy="21" rx="4" ry="4"/><filter id="i" width="200%" height="200%" x="-50%" y="-50%" filterUnits="objectBoundingBox"><feOffset in="SourceAlpha" result="shadowOffsetOuter1"/><feGaussianBlur in="shadowOffsetOuter1" result="shadowBlurOuter1" stdDeviation="2"/><feColorMatrix in="shadowBlurOuter1" values="0 0 0 0 1 0 0 0 0 1 0 0 0 0 1 0 0 0 0.665223053 0"/></filter><ellipse id="l" cx="33" cy="21" rx="4" ry="4"/><filter id="k" width="200%" height="200%" x="-50%" y="-50%" filterUnits="objectBoundingBox"><feOffset in="SourceAlpha" result="shadowOffsetOuter1"/><feGaussianBlur in="shadowOffsetOuter1" result="shadowBlurOuter1" stdDeviation="2"/><feColorMatrix in="shadowBlurOuter1" values="0 0 0 0 1 0 0 0 0 1 0 0 0 0 1 0 0 0 0.665223053 0"/></filter></defs><g fill="none" fill-rule="evenodd"><circle cx="193" cy="295" r="153" fill="#F6F6F6"/><path stroke="#E8E8E8" stroke-linecap="round" stroke-width="4" d="M244 298h76c7 0 12 6 12 13v65c0 13 11 24 24 24h75M210 188l1-18v-49c0-15 12-26 27-26h153c8 0 16 7 16 16v49M194 405v18l1 17c0 14 12 26 26 26h270"/><rect width="13" height="21" x="188" y="267" fill="#61D6FF" rx="5"/><rect width="82" height="6" x="153" y="387" fill="#15BDF9" rx="3"/><g transform="translate(130 206)"><rect width="129" height="40" y="71" fill="#15BDF9" rx="20"/><rect width="42" height="8" x="73" y="88" fill="#1184B8" rx="4"/><use fill="#000" filter="url(#a)" xlink:href="#b"/><use fill="#FFF" xlink:href="#b"/><use fill="#000" filter="url(#c)" xlink:href="#d"/><use fill="#FFF" xlink:href="#d"/><path fill="#61D6FF" d="M63 24h2v37h-2z"/><path stroke="#7BDDFF" stroke-width="3" d="M42 1a25 25 0 0 0 1 37m6-27a13 13 0 0 0 1 19M87 1a25 25 0 0 1-1 37m-6-27a13 13 0 0 1-1 19"/><ellipse cx="65" cy="20" fill="#02BDFF" rx="7" ry="7"/></g><g transform="translate(500 375)"><rect width="129" height="40" y="71" fill="#7BDDFF" rx="20"/><rect width="42" height="8" x="73" y="88" fill="#15BDF9" rx="4"/><use fill="#000" filter="url(#e)" xlink:href="#f"/><use fill="#FFF" xlink:href="#f"/><use fill="#000" filter="url(#g)" xlink:href="#h"/><use fill="#FFF" xlink:href="#h"/><path fill="#61D6FF" d="M63 24h2v37h-2z"/><path stroke="#7BDDFF" stroke-width="3" d="M42 1a25 25 0 0 0 1 37m6-27a13 13 0 0 0 1 19M87 1a25 25 0 0 1-1 37m-6-27a13 13 0 0 1-1 19"/><ellipse cx="65" cy="20" fill="#02BDFF" rx="7" ry="7"/></g><g transform="translate(130 325)"><rect width="129" height="40" fill="#15BDF9" rx="20"/><rect width="42" height="8" x="73" y="17" fill="#1184B8" rx="4"/><use fill="#000" filter="url(#i)" xlink:href="#j"/><use fill="#FFF" xlink:href="#j"/><use fill="#000" filter="url(#k)" xlink:href="#l"/><use fill="#FFF" xlink:href="#l"/></g><ellipse cx="195" cy="387" fill="#15BDF9" rx="11" ry="11"/><circle cx="457" cy="399" r="15" fill="#15BDF9"/><path fill="#15BDF9" d="M152 82a28 28 0 0 1 0-56 31 31 0 0 1 60-4 21 21 0 0 1 28 18h3a21 21 0 0 1 0 42h-91z"/><path fill="#7BDDFF" d="M370 218a19 19 0 0 1 0-38 21 21 0 0 1 41-3 14 14 0 0 1 20 12h2a14 14 0 1 1 0 29h-63z"/><path fill="#61D5FF" d="M94 190c13 0 23-10 23-23s-10-23-23-23c-2-12-13-22-26-22-11 0-21 8-24 19a18 18 0 0 0-24 14h-2c-10 0-18 8-18 17 0 10 8 18 18 18h76z"/><path stroke="#E8E8E8" stroke-linecap="round" stroke-width="4" d="M194 90v97m-71-22h44c6 0 11 5 11 11v11"/></g></svg>