<?xml version="1.0" encoding="utf-8"?>
<!-- Generator: Adobe Illustrator 21.0.0, SVG Export Plug-In . SVG Version: 6.00 Build 0)  -->
<svg version="1.0" id="图层_1" xmlns="http://www.w3.org/2000/svg" xmlns:xlink="http://www.w3.org/1999/xlink" x="0px" y="0px"
	 viewBox="0 0 700 1800" style="enable-background:new 0 0 700 1800;" xml:space="preserve">
<style type="text/css">
	.st0{fill:#FFFFFF;}
	.st1{fill:none;stroke:#FFFFFF;stroke-width:2;stroke-miterlimit:10;}
	.st2{fill:none;stroke:#FFFFFF;stroke-miterlimit:10;}
	.st3{fill-rule:evenodd;clip-rule:evenodd;fill:#FFFFFF;}
	.st4{fill:#CCCCCC;}
	.st5{fill:#B3B3B3;}
	.st6{fill:#E6E6E6;}
	.st7{fill:#999999;}
	.st8{fill:none;stroke:#353584;stroke-miterlimit:10;}
	.st9{fill:#2E2E8E;}
</style>
<g>
	<polygon class="st0" points="270.5,1200.7 299.8,1200.7 314.5,1175.3 299.8,1149.9 270.5,1149.9 255.8,1175.3 	"/>
	<g>
		<polygon class="st0" points="347.6,1034.4 376.9,1034.4 391.6,1009 376.9,983.6 347.6,983.6 332.9,1009 		"/>
	</g>
	<g>
		<polygon class="st0" points="419.9,1156.1 449.2,1156.1 463.8,1130.7 449.2,1105.3 419.9,1105.3 405.2,1130.7 		"/>
	</g>
</g>
<g>
	<polygon class="st1" points="302.7,1604.9 302.7,1518.8 228.1,1475.7 153.5,1518.8 153.5,1604.9 228.1,1648 	"/>
	<polygon class="st1" points="222.4,1467 222.4,1380.9 147.8,1337.8 73.2,1380.9 73.2,1467 147.8,1510.1 	"/>
	<polygon class="st1" points="382.8,1467 382.8,1380.9 308.2,1337.8 233.6,1380.9 233.6,1467 308.2,1510.1 	"/>
	<polygon class="st1" points="622.2,1327.9 622.2,1241.7 547.6,1198.7 473,1241.7 473,1327.9 547.6,1370.9 	"/>
	<polygon class="st1" points="383.1,1746.9 383.1,1660.8 308.5,1617.7 233.9,1660.8 233.9,1746.9 308.5,1790 	"/>
	<polygon class="st1" points="462.6,1327.7 462.6,1241.6 388,1198.5 313.4,1241.6 313.4,1327.7 388,1370.8 	"/>
	<polygon class="st1" points="462.6,1604.9 462.6,1518.8 388,1475.7 313.4,1518.8 313.4,1604.9 388,1648 	"/>
	<polygon class="st1" points="543.2,1467 543.2,1380.9 468.6,1337.8 394,1380.9 394,1467 468.6,1510.1 	"/>
	<polygon class="st1" points="625.6,1604.9 625.6,1518.8 551,1475.7 476.4,1518.8 476.4,1604.9 551,1648 	"/>
</g>
<line class="st2" x1="361.8" y1="977" x2="361.8" y2="304"/>
<polyline class="st2" points="434.8,1098 434.8,948 361.8,887 "/>
<polyline class="st2" points="361.8,840 281.3,877.5 281.3,1140.5 "/>
<g>
	<path class="st0" d="M145.3,1395.7c2.5-2.6,5.9-4.2,9.8-4.2c5.1,0,9.5,2.8,11.9,7c2-0.9,4.3-1.4,6.7-1.4c9.2,0,16.6,7.5,16.6,16.7
		c0,9.2-7.4,16.7-16.6,16.7c-1.1,0-2.2-0.1-3.3-0.3c-2.1,3.7-6,6.2-10.6,6.2c-1.9,0-3.7-0.4-5.3-1.2c-2.1,5-7,8.4-12.7,8.4
		c-6,0-11-3.8-13-9.1c-0.9,0.2-1.7,0.3-2.6,0.3c-7.1,0-12.8-5.8-12.8-13c0-4.8,2.6-9,6.4-11.2c-0.8-1.8-1.2-3.8-1.2-5.9
		c0-8.2,6.7-14.9,14.9-14.9C138.2,1389.8,142.5,1392.1,145.3,1395.7"/>
	<g>
		<path class="st0" d="M104.3,1464.8c-0.1,0.2,0,0.3,0.1,0.3c0.2,0.2,0.5,0.3,0.7,0.5c1.3,0.7,2.6,0.9,3.9,0.9
			c2.7,0,4.3-1.4,4.3-3.7v0c0-2.1-1.9-2.9-3.6-3.4l-0.2-0.1c-1.3-0.4-2.5-0.8-2.5-1.7v0c0-0.7,0.7-1.3,1.7-1.3
			c1.2,0,2.5,0.4,3.4,0.9c0,0,0.3,0.2,0.4-0.1c0.1-0.1,0.5-1.3,0.5-1.5c0.1-0.1,0-0.2-0.1-0.3c-1-0.6-2.4-1-3.8-1l-0.3,0
			c-2.5,0-4.2,1.5-4.2,3.6v0c0,2.2,1.9,3,3.7,3.5l0.3,0.1c1.3,0.4,2.4,0.7,2.4,1.6v0c0,0.8-0.7,1.4-1.9,1.4c-0.5,0-1.9,0-3.4-1
			c-0.2-0.1-0.3-0.2-0.4-0.3c-0.1,0-0.3-0.1-0.4,0.1L104.3,1464.8L104.3,1464.8z"/>
		<path class="st0" d="M143.5,1464.8c-0.1,0.2,0,0.3,0.1,0.3c0.2,0.2,0.5,0.3,0.7,0.5c1.3,0.7,2.6,0.9,3.9,0.9
			c2.7,0,4.3-1.4,4.3-3.7v0c0-2.1-1.9-2.9-3.6-3.4l-0.2-0.1c-1.3-0.4-2.5-0.8-2.5-1.7v0c0-0.7,0.7-1.3,1.7-1.3
			c1.2,0,2.5,0.4,3.4,0.9c0,0,0.3,0.2,0.4-0.1c0.1-0.1,0.5-1.3,0.5-1.5c0.1-0.1,0-0.2-0.1-0.3c-1-0.6-2.4-1-3.8-1l-0.3,0
			c-2.5,0-4.2,1.5-4.2,3.6v0c0,2.2,1.9,3,3.7,3.5l0.3,0.1c1.3,0.4,2.4,0.7,2.4,1.6v0c0,0.8-0.7,1.4-1.9,1.4c-0.5,0-1.9,0-3.4-1
			c-0.2-0.1-0.3-0.2-0.4-0.3c0,0-0.3-0.1-0.4,0.1L143.5,1464.8L143.5,1464.8z"/>
		<path class="st0" d="M170.3,1460.3c0,1.3-0.2,2.3-0.7,3c-0.5,0.7-1.2,1.1-2.2,1.1c-1,0-1.7-0.3-2.2-1.1c-0.5-0.7-0.7-1.7-0.7-3
			c0-1.3,0.2-2.3,0.7-3c0.5-0.7,1.2-1.1,2.2-1.1c1,0,1.7,0.3,2.2,1.1C170.1,1458,170.3,1459,170.3,1460.3 M172.5,1457.9
			c-0.2-0.7-0.6-1.4-1-1.9c-0.5-0.5-1-1-1.7-1.3c-0.7-0.3-1.5-0.5-2.4-0.5c-0.9,0-1.7,0.2-2.4,0.5c-0.7,0.3-1.3,0.8-1.7,1.3
			c-0.5,0.5-0.8,1.2-1,1.9c-0.2,0.7-0.3,1.5-0.3,2.4c0,0.9,0.1,1.7,0.3,2.4c0.2,0.7,0.6,1.4,1,1.9c0.5,0.5,1,1,1.7,1.3
			c0.7,0.3,1.5,0.5,2.4,0.5c0.9,0,1.7-0.2,2.4-0.5c0.7-0.3,1.3-0.7,1.7-1.3c0.5-0.5,0.8-1.2,1-1.9c0.2-0.7,0.3-1.5,0.3-2.4
			C172.9,1459.5,172.8,1458.7,172.5,1457.9"/>
		<path class="st0" d="M190.9,1464.1c-0.1-0.2-0.3-0.1-0.3-0.1c-0.3,0.1-0.7,0.2-1,0.3c-0.4,0.1-0.8,0.1-1.2,0.1
			c-1.1,0-1.9-0.3-2.6-1c-0.6-0.6-1-1.7-1-3.1c0-1.3,0.3-2.2,0.9-2.9c0.5-0.7,1.4-1.1,2.5-1.1c0.9,0,1.6,0.1,2.4,0.3
			c0,0,0.2,0.1,0.3-0.2c0.2-0.5,0.3-0.9,0.5-1.5c0.1-0.2-0.1-0.2-0.1-0.3c-0.3-0.1-1-0.3-1.5-0.4c-0.5-0.1-1-0.1-1.7-0.1
			c-0.9,0-1.8,0.2-2.5,0.5c-0.7,0.3-1.3,0.8-1.8,1.3c-0.5,0.5-0.8,1.2-1.1,1.9c-0.2,0.7-0.4,1.5-0.4,2.4c0,1.9,0.5,3.4,1.5,4.5
			c1,1.1,2.5,1.7,4.4,1.7c1.1,0,2.3-0.2,3.2-0.6c0,0,0.2-0.1,0.1-0.3L190.9,1464.1L190.9,1464.1z"/>
		<path class="st0" d="M194.8,1459.1c0.1-0.7,0.3-1.3,0.6-1.8c0.5-0.7,1.2-1.1,2.2-1.1s1.6,0.4,2.1,1.1c0.3,0.5,0.4,1.1,0.5,1.8
			H194.8L194.8,1459.1z M202.3,1457.5c-0.2-0.7-0.7-1.4-1-1.8c-0.5-0.5-1-0.9-1.4-1.1c-0.6-0.3-1.4-0.4-2.2-0.4
			c-0.9,0-1.8,0.2-2.5,0.5c-0.7,0.3-1.3,0.8-1.7,1.3c-0.5,0.6-0.8,1.2-1,2c-0.2,0.7-0.3,1.6-0.3,2.4c0,0.9,0.1,1.7,0.3,2.4
			c0.2,0.7,0.6,1.4,1.1,1.9c0.5,0.5,1.1,1,1.9,1.3c0.8,0.3,1.7,0.4,2.7,0.4c2.2,0,3.3-0.5,3.8-0.8c0.1,0,0.2-0.1,0.1-0.4l-0.5-1.4
			c-0.1-0.2-0.3-0.1-0.3-0.1c-0.5,0.2-1.3,0.6-3.1,0.6c-1.2,0-2-0.3-2.6-0.9c-0.6-0.6-0.8-1.4-0.9-2.5l7.6,0c0,0,0.2,0,0.2-0.2
			C202.6,1460.7,202.8,1459.2,202.3,1457.5L202.3,1457.5z"/>
		<path class="st0" d="M134.2,1459.1c0.1-0.7,0.3-1.3,0.6-1.8c0.5-0.7,1.2-1.1,2.2-1.1c1,0,1.6,0.4,2.1,1.1c0.3,0.5,0.4,1.1,0.5,1.8
			H134.2L134.2,1459.1z M141.7,1457.5c-0.2-0.7-0.7-1.4-1-1.8c-0.5-0.5-1-0.9-1.4-1.1c-0.6-0.3-1.4-0.4-2.2-0.4
			c-0.9,0-1.8,0.2-2.5,0.5c-0.7,0.3-1.3,0.8-1.7,1.3c-0.5,0.6-0.8,1.2-1,2c-0.2,0.7-0.3,1.6-0.3,2.4c0,0.9,0.1,1.7,0.3,2.4
			c0.2,0.7,0.6,1.4,1.1,1.9c0.5,0.5,1.1,1,1.9,1.3c0.8,0.3,1.7,0.4,2.7,0.4c2.2,0,3.3-0.5,3.8-0.8c0.1,0,0.2-0.1,0.1-0.4l-0.5-1.4
			c-0.1-0.2-0.3-0.1-0.3-0.1c-0.5,0.2-1.3,0.6-3.1,0.6c-1.2,0-2-0.3-2.6-0.9c-0.6-0.6-0.8-1.4-0.9-2.5l7.6,0c0,0,0.2,0,0.2-0.2
			C142,1460.7,142.2,1459.2,141.7,1457.5L141.7,1457.5z"/>
		<path class="st0" d="M117.8,1464c-0.3-0.2-0.3-0.3-0.4-0.4c-0.1-0.2-0.2-0.6-0.2-1c0-0.7,0.2-1.1,0.7-1.5c0,0,0.7-0.6,2.2-0.5
			c1.1,0,2.1,0.2,2.1,0.2v3.4h0c0,0-1,0.2-2,0.3C118.5,1464.6,117.8,1464,117.8,1464 M120.9,1458.7c-0.3,0-0.7,0-1.2,0
			c-0.6,0-1.3,0.1-1.9,0.2c-0.6,0.2-1.1,0.4-1.6,0.7c-0.5,0.3-0.8,0.7-1.1,1.2s-0.4,1.1-0.4,1.7c0,0.7,0.1,1.3,0.3,1.7
			c0.2,0.5,0.6,0.9,1,1.2c0.4,0.3,0.9,0.5,1.5,0.7c0.6,0.1,1.3,0.2,2,0.2c0.8,0,1.5-0.1,2.3-0.2c0.7-0.1,1.7-0.3,1.9-0.4
			c0.3-0.1,0.5-0.1,0.5-0.1c0.2,0,0.2-0.2,0.2-0.2l0-6.9c0-1.5-0.4-2.6-1.2-3.3c-0.8-0.7-2-1-3.5-1c-0.6,0-1.5,0.1-2,0.2
			c0,0-1.7,0.3-2.3,0.9c0,0-0.1,0.1-0.1,0.3l0.5,1.4c0.1,0.2,0.2,0.1,0.2,0.1s0.1,0,0.1-0.1c1.5-0.8,3.3-0.8,3.3-0.8
			c0.8,0,1.4,0.2,1.9,0.5c0.4,0.3,0.6,0.8,0.6,1.8v0.3C121.5,1458.8,120.9,1458.7,120.9,1458.7"/>
		<path class="st0" d="M181.9,1454.8c0.1-0.2-0.1-0.3-0.1-0.3c-0.1-0.1-0.8-0.2-1.3-0.2c-1-0.1-1.5,0.1-2,0.3
			c-0.5,0.2-1,0.6-1.3,0.9v-0.9c0-0.1-0.1-0.2-0.2-0.2h-1.9c-0.1,0-0.2,0.1-0.2,0.2v11.3c0,0.1,0.1,0.2,0.2,0.2h2
			c0.1,0,0.2-0.1,0.2-0.2v-5.6c0-0.8,0.1-1.5,0.3-2c0.2-0.5,0.4-0.8,0.7-1.1c0.3-0.3,0.6-0.5,0.9-0.6c0.4-0.1,0.7-0.1,1-0.1
			c0.4,0,0.8,0.1,0.8,0.1c0.1,0,0.2-0.1,0.3-0.2C181.5,1456.1,181.8,1455,181.9,1454.8"/>
		<path class="st0" d="M163.2,1449.6c-0.2-0.1-0.5-0.1-0.7-0.2c-0.3-0.1-0.6-0.1-1-0.1c-1.4,0-2.4,0.4-3.2,1.1
			c-0.8,0.8-1.3,1.9-1.5,3.4l-0.1,0.5h-1.7c0,0-0.2,0-0.3,0.2l-0.3,1.6c0,0.1,0,0.2,0.2,0.2h1.7l-1.7,9.5c-0.1,0.8-0.3,1.4-0.5,1.9
			c-0.2,0.5-0.3,0.8-0.5,1.1c-0.2,0.2-0.4,0.4-0.7,0.5c-0.3,0.1-0.6,0.1-0.9,0.1c-0.2,0-0.4,0-0.6-0.1c-0.2,0-0.3-0.1-0.4-0.1
			c0,0-0.2-0.1-0.3,0.1c-0.1,0.2-0.5,1.4-0.6,1.5c-0.1,0.2,0,0.3,0.1,0.3c0.2,0.1,0.4,0.1,0.7,0.2c0.4,0.1,0.8,0.1,1.1,0.1
			c0.7,0,1.3-0.1,1.9-0.3c0.5-0.2,1-0.5,1.4-1c0.4-0.5,0.7-1,1-1.7c0.3-0.7,0.5-1.5,0.7-2.5l1.7-9.6h2.5c0,0,0.2,0,0.3-0.2l0.3-1.6
			c0-0.2,0-0.2-0.2-0.2h-2.4c0-0.1,0.1-0.9,0.4-1.7c0.1-0.3,0.3-0.6,0.5-0.8c0.2-0.2,0.4-0.3,0.6-0.4c0.2-0.1,0.5-0.1,0.8-0.1
			c0.2,0,0.5,0,0.6,0.1c0.2,0.1,0.3,0.1,0.4,0.1c0.2,0.1,0.3,0,0.3-0.1l0.6-1.6C163.4,1449.7,163.3,1449.6,163.2,1449.6"/>
		<path class="st0" d="M129.4,1465.9c0,0.1-0.1,0.2-0.2,0.2h-2c-0.1,0-0.2-0.1-0.2-0.2v-16.1c0-0.1,0.1-0.2,0.2-0.2h2
			c0.1,0,0.2,0.1,0.2,0.2V1465.9L129.4,1465.9z"/>
	</g>
</g>
<g>
	<g>
		<polygon class="st0" points="373.8,1240.8 353.8,1253.9 367.6,1265 387.8,1252.5 		"/>
		<polygon class="st0" points="353.8,1276 373.8,1289.1 387.8,1277.4 367.6,1265 		"/>
		<polygon class="st0" points="387.8,1277.4 401.8,1289.1 421.8,1276 408,1265 		"/>
		<polygon class="st0" points="421.8,1253.9 401.8,1240.8 387.8,1252.5 408,1265 		"/>
		<polygon class="st0" points="387.8,1279.9 373.8,1291.6 367.8,1287.7 367.8,1292.1 387.8,1304.1 407.9,1292.1 407.9,1287.7 
			401.9,1291.6 		"/>
	</g>
	<g>
		<path class="st0" d="M354.1,1324.6h4.1c1.2,0,2.9,0,4.3-1.1c1.7-1.3,2.6-3.9,2.6-6.9c0-7.7-4.9-7.7-7.3-7.7h-3.7V1324.6z
			 M357.5,1311.6h0.6c1.4,0,3.3,0.2,3.3,5c0,5.1-1.9,5.3-3.3,5.3h-0.6V1311.6z"/>
		<path class="st0" d="M366.2,1313v11.6h3.2v-5c0-0.9,0-3.6,2.4-3.6c0.1,0,0.3,0,0.5,0v-3.1c-0.2,0-0.3-0.1-0.6-0.1
			c-1.9,0-2.4,2-2.7,3v-2.8H366.2z"/>
		<path class="st0" d="M377.5,1312.7c-3.5,0-4.7,2.4-4.7,6c0,3.7,1.4,6,4.7,6c3.4,0,4.7-2.3,4.7-6
			C382.2,1315.1,381,1312.7,377.5,1312.7z M377.5,1315c1,0,1.4,0.8,1.4,3.8c0,3.1-0.4,3.8-1.4,3.8c-1,0-1.4-0.7-1.4-3.8
			C376.1,1315.9,376.5,1315,377.5,1315L377.5,1315z"/>
		<path class="st0" d="M383.2,1313v15.5h3.2v-4.8c0.4,0.4,0.9,1,2.2,1c3.7,0,3.9-4.5,3.9-6.1c0-1.9-0.4-3.8-1.5-4.9
			c-0.6-0.6-1.4-0.9-2.2-0.9c-1.6,0-2.2,1.2-2.6,1.9v-1.7H383.2z M386.4,1317.6c0-1,0-2.7,1.5-2.7c1.2,0,1.3,1.6,1.3,3.7
			c0,2.4-0.1,3.9-1.4,3.9c-1.4,0-1.4-1-1.4-2.7V1317.6z"/>
		<path class="st0" d="M393.5,1308.9v15.7h1.9c0.3-0.8,0.4-1.1,0.6-1.5c0.3,0.6,0.8,1.7,2.7,1.7c0.6,0,1.2-0.1,1.9-0.4
			c2.1-1.1,2.3-4.6,2.3-5.7c0-2.8-0.9-5.9-3.7-5.9c-1.4,0-2,0.8-2.4,1.2v-5.2H393.5z M396.7,1317.1c0-0.6,0-1.2,0.4-1.6
			c0.2-0.3,0.6-0.5,1-0.5c0.9,0,1.4,0.8,1.4,3.8c0,3-0.4,3.8-1.5,3.8c-1.4,0-1.4-1.5-1.4-2.8V1317.1z"/>
		<path class="st0" d="M408.4,1312.7c-3.5,0-4.7,2.4-4.7,6c0,3.7,1.4,6,4.7,6c3.4,0,4.7-2.3,4.7-6
			C413.1,1315.1,411.8,1312.7,408.4,1312.7z M408.4,1315c1,0,1.4,0.8,1.4,3.8c0,3.1-0.4,3.8-1.4,3.8c-1,0-1.4-0.7-1.4-3.8
			C407,1315.9,407.3,1315,408.4,1315L408.4,1315z"/>
		<path class="st0" d="M412.9,1313l3,5.7l-3.4,5.9h2.8l2-3.5l1.7,3.5h3.5l-3.5-6.5l3-5.1h-2.8l-1.5,2.7l-1.2-2.7H412.9z"/>
	</g>
</g>
<g>
	<g>
		<g>
			<polygon class="st0" points="296.1,1378.8 271.7,1420.9 282.6,1440.9 307.2,1398.4 			"/>
			<g>
				<polygon class="st0" points="343.1,1420.7 294.2,1420.8 282.6,1440.9 331.4,1440.8 				"/>
				<polygon class="st0" points="318.6,1378.9 296.1,1378.8 320,1420.8 343.1,1420.7 				"/>
			</g>
		</g>
	</g>
	<g>
		<path class="st0" d="M264.4,1462.9c-0.9,0.3-2.7,0.8-4.7,0.8c-2.3,0-4.2-0.6-5.7-2c-1.3-1.3-2.1-3.3-2.1-5.7
			c0-4.6,3.2-7.9,8.3-7.9c1.8,0,3.2,0.4,3.8,0.7l-0.5,1.6c-0.8-0.4-1.8-0.7-3.4-0.7c-3.7,0-6.1,2.3-6.1,6.1c0,3.9,2.3,6.2,5.9,6.2
			c1.3,0,2.2-0.2,2.6-0.4v-4.6h-3.1v-1.6h5V1462.9z"/>
		<path class="st0" d="M277.4,1458c0,4.1-2.8,5.8-5.5,5.8c-2.9,0-5.3-2.2-5.3-5.6c0-3.7,2.4-5.8,5.4-5.8
			C275.2,1452.4,277.4,1454.7,277.4,1458z M268.7,1458.1c0,2.4,1.4,4.2,3.3,4.2c1.9,0,3.3-1.8,3.3-4.3c0-1.9-0.9-4.2-3.3-4.2
			C269.7,1453.9,268.7,1456.1,268.7,1458.1z"/>
		<path class="st0" d="M289.8,1458c0,4.1-2.8,5.8-5.5,5.8c-2.9,0-5.3-2.2-5.3-5.6c0-3.7,2.4-5.8,5.4-5.8
			C287.7,1452.4,289.8,1454.7,289.8,1458z M281.1,1458.1c0,2.4,1.4,4.2,3.3,4.2c1.9,0,3.3-1.8,3.3-4.3c0-1.9-0.9-4.2-3.3-4.2
			C282.1,1453.9,281.1,1456.1,281.1,1458.1z"/>
		<path class="st0" d="M301.7,1462c0,2.5-0.5,4.1-1.6,5c-1.1,1-2.6,1.3-4,1.3c-1.3,0-2.8-0.3-3.7-0.9l0.5-1.5
			c0.7,0.5,1.9,0.9,3.2,0.9c2,0,3.5-1.1,3.5-3.9v-1.2h0c-0.6,1-1.8,1.8-3.5,1.8c-2.7,0-4.7-2.3-4.7-5.4c0-3.7,2.4-5.8,5-5.8
			c1.9,0,2.9,1,3.4,1.9h0l0.1-1.7h1.8c-0.1,0.8-0.1,1.7-0.1,3V1462z M299.7,1456.9c0-0.3,0-0.6-0.1-0.9c-0.4-1.2-1.3-2.1-2.8-2.1
			c-1.9,0-3.3,1.6-3.3,4.2c0,2.2,1.1,3.9,3.2,3.9c1.2,0,2.4-0.8,2.8-2c0.1-0.3,0.2-0.7,0.2-1.1V1456.9z"/>
		<path class="st0" d="M305,1447.5h2v16.1h-2V1447.5z"/>
		<path class="st0" d="M311.5,1458.5c0,2.7,1.7,3.8,3.8,3.8c1.4,0,2.3-0.2,3-0.6l0.4,1.4c-0.7,0.3-1.9,0.7-3.7,0.7
			c-3.4,0-5.4-2.2-5.4-5.6c0-3.3,2-5.9,5.1-5.9c3.6,0,4.5,3.1,4.5,5.1c0,0.4,0,0.7-0.1,0.9H311.5z M317.3,1457
			c0-1.2-0.5-3.2-2.8-3.2c-2,0-2.9,1.8-3.1,3.2H317.3z"/>
		<path class="st0" d="M326.6,1448.5c1.2-0.2,2.6-0.3,4.2-0.3c2.8,0,4.9,0.7,6.2,1.9c1.4,1.2,2.2,3,2.2,5.5c0,2.5-0.8,4.5-2.2,5.9
			c-1.5,1.4-3.8,2.2-6.8,2.2c-1.4,0-2.6-0.1-3.6-0.2V1448.5z M328.6,1462c0.5,0.1,1.2,0.1,2,0.1c4.2,0,6.5-2.4,6.5-6.5
			c0-3.6-2-5.9-6.2-5.9c-1,0-1.8,0.1-2.3,0.2V1462z"/>
		<path class="st0" d="M341.6,1456c0-1.3,0-2.4-0.1-3.4h1.7l0.1,2.2h0.1c0.5-1.5,1.7-2.4,3.1-2.4c0.2,0,0.4,0,0.5,0v1.9
			c-0.2,0-0.4,0-0.7,0c-1.4,0-2.4,1-2.7,2.5c0,0.3-0.1,0.6-0.1,0.9v5.9h-2V1456z"/>
		<path class="st0" d="M351.4,1449.5c0,0.7-0.5,1.2-1.3,1.2c-0.7,0-1.2-0.5-1.2-1.2c0-0.7,0.5-1.2,1.2-1.2
			C350.9,1448.3,351.4,1448.8,351.4,1449.5z M349.1,1463.6v-11h2v11H349.1z"/>
		<path class="st0" d="M355.2,1452.6l2.2,6.1c0.4,1,0.7,1.9,0.9,2.8h0.1c0.2-0.9,0.6-1.8,0.9-2.8l2.1-6.1h2.1l-4.3,11h-1.9l-4.2-11
			H355.2z"/>
		<path class="st0" d="M366.2,1458.5c0,2.7,1.7,3.8,3.8,3.8c1.4,0,2.3-0.2,3-0.6l0.4,1.4c-0.7,0.3-1.9,0.7-3.7,0.7
			c-3.4,0-5.4-2.2-5.4-5.6c0-3.3,2-5.9,5.1-5.9c3.6,0,4.5,3.1,4.5,5.1c0,0.4,0,0.7-0.1,0.9H366.2z M372.1,1457
			c0-1.2-0.5-3.2-2.8-3.2c-2,0-2.9,1.8-3.1,3.2H372.1z"/>
	</g>
</g>
<g>
	<g>
		<path class="st0" d="M531.8,1313.7c1.1,0,2-0.9,2-2s-0.9-2-2-2c-1.1,0-2,0.9-2,2S530.7,1313.7,531.8,1313.7L531.8,1313.7z
			 M598.2,1320.6c-0.3-0.2-0.5-0.3-0.7,0.2c-3.4,7.3-9.1,3.7-8.5,4c1.3-0.6,4.6-3.2,4.1-6.9c-0.3-2.2-2.2-3.2-4.3-2.9
			c-3.6,0.6-4.9,4.5-4.2,7.9c0.1,0.6,0.3,1.1,0.5,1.5c-4,3.3-5.6-2.9-5.8-3.7c0,0,3.1-2.6,4-8.8c0.9-6.5-1.2-7.7-3.3-7.7
			c-3.9,0.1-5,8.3-3.6,15.1c-0.1,0-0.7,0.3-1.6,0.4c-0.6-2-3.4-3.8-4.1-3.1c-1.8,1.7,0.4,5,2,5.3c-0.9,5.8-6.8,4.4-5.7-2.9
			c1.9-3.6,3.4-8.9,3.1-12.1c-0.1-1.1-0.9-2.7-2.8-2.6c-3.6,0.1-4,8.3-3.6,14.2c0-0.1-0.2,0.7-1.7,1.1c-0.4-2-3.5-3.9-4.3-3
			c-1.4,1.8,1,4.9,2.2,5.2c-0.9,5.8-6.8,4.4-5.7-2.9c1.9-3.6,3.4-8.9,3.1-12.1c-0.1-1.1-0.9-2.7-2.8-2.6c-3.6,0.1-4,8.3-3.6,14.2
			c0-0.1-0.2,0.7-1.8,1.1c-0.1-2.5-3.2-3.7-4-2.9c-1.4,1.4,0.3,4.4,1.9,5.2c-0.9,5.8-6.8,4.4-5.7-2.9c1.9-3.6,3.4-8.9,3.1-12.1
			c-0.1-1.1-0.9-2.7-2.8-2.6c-3.6,0.1-3.9,8.8-3.5,14.6c-1.2,5.1-5.2,11.6-4.7-1.3c0.1-0.9,0.1-1.2-0.3-1.6
			c-0.3-0.3-1.1-0.1-1.5-0.1c-0.5,0-0.6,0.3-0.8,0.8c-0.3,1.2-0.3,2.3-0.3,3.8c0,0.7-0.1,1.1-0.4,2c-0.3,1-1.9,2.8-2.7,2.5
			c-1.2-0.4-0.8-3.8-0.6-6.1c0.2-1.8-0.4-2.7-2-3c-0.9-0.2-1.4-0.2-2.4-0.5c-0.9-0.3-1.1-2-3-1.4c-1,0.3-0.4,2.5-0.6,4.1
			c-1.2,8-3.8,8.2-4.9,4.3c5.3-13,1.5-18.2-0.7-18.2c-2.3,0-4.9,1.6-3.8,11.7c-0.5-0.2-0.7-0.2-1.3-0.2c-3.4,0-5.6,2.7-5.6,6.1
			c0,3.3,2.3,6.1,5.6,6.1c2,0,3.4-0.9,4.4-2.3c0.7,1,1.5,2.3,3.1,2.3c4.6-0.2,5.9-9.5,6-10.1c0.5,0.1,0.9,0.2,1.4,0.3
			c0.8,0.1,0.8,0.4,0.8,1.2c-0.2,6.4,1,8.6,3.6,8.6c1.5,0,2.8-1.5,3.7-2.5c0.7,1.4,1.8,2.5,3.2,2.5c3.5,0.1,4.9-5.5,4.8-4.8
			c-0.1,0.6,1.1,4.8,4.8,4.8c4.5,0,5.3-4.9,5.4-5.8c0-0.2,0-0.1,0,0c0,0,0,0,0,0.1c1.4-0.3,2.2-1,2.2-1s1.1,6.8,5.4,6.7
			c4.4-0.1,5.2-4.6,5.4-5.4c0-0.2,0-0.2,0,0c0,0,0,0,0,0c1.7-0.6,2.1-1.2,2.1-1.2s0.9,6.7,5.4,6.7c4,0.1,5.5-4,5.5-5.8
			c0.7,0,1.9-0.4,1.9-0.4c0,0,1.5,5.8,5.5,6.1c1.9,0.1,3.4-1.1,4.2-1.6c1.9,1.6,8.3,3.6,12.4-3.3
			C599.6,1321.9,598.4,1320.7,598.2,1320.6L598.2,1320.6z M507.7,1325.6c-2,0-3.2-1.8-3.2-3.8s1.2-3.8,3.1-3.8
			c0.9,0,1.4,0.1,2.1,0.7c0.1,0.5,0.5,1.6,0.6,2.1c0.2,0.7,0.5,1.3,0.8,1.9C510.7,1324.4,509.4,1325.6,507.7,1325.6L507.7,1325.6z
			 M512.4,1318.8c-0.1-0.1-0.1-0.1-0.2-0.2c-0.4-1-1.1-3.2-1.1-5.6c-0.1-2.8,0.4-6.1,1.8-6.1
			C513.8,1306.9,514.8,1313.6,512.4,1318.8L512.4,1318.8z M540,1315.9c-0.2-1.7-0.2-9.1,1.5-8.9
			C542.6,1307.4,540.9,1314.4,540,1315.9L540,1315.9z M553,1315.9c-0.2-1.7-0.2-9.1,1.5-8.9C555.5,1307.4,553.9,1314.4,553,1315.9
			L553,1315.9z M565.9,1316c-0.2-1.7-0.2-9.1,1.5-8.9C568.4,1307.5,566.8,1314.5,565.9,1316L565.9,1316z M580.1,1306.6
			c1.6-0.2,1.6,6.9-1.7,11.4C578,1316.4,577.4,1307.1,580.1,1306.6L580.1,1306.6z M587,1321.9c-0.5-2.6,0.8-4.4,2.2-4.6
			c0.5-0.1,1.2,0.2,1.3,0.8c0.2,1.1,0,2.8-3.1,4.8C587.4,1323,587.1,1322.4,587,1321.9L587,1321.9z"/>
	</g>
	<g id="XMLID_22_">
		<g id="XMLID_64_">
			<defs>
				<path id="XMLID_65_" d="M546.8,1296.8c-17.1,0-31-13.9-31-30.9c0-17.1,13.9-30.9,31-30.9c17.1,0,31,13.9,31,30.9
					C577.7,1282.9,563.8,1296.8,546.8,1296.8L546.8,1296.8z M572.9,1270.1c-0.9-0.3-8.2-2.5-16.5-1.1c3.5,9.5,4.9,17.2,5.1,18.8
					C567.5,1283.8,571.7,1277.5,572.9,1270.1L572.9,1270.1z M557.1,1290.2c-0.4-2.3-1.9-10.4-5.6-20c-0.1,0-0.1,0-0.2,0.1
					c-14.9,5.2-20.3,15.5-20.8,16.5c4.5,3.5,10.1,5.6,16.2,5.6C550.4,1292.3,553.9,1291.6,557.1,1290.2L557.1,1290.2z M527.1,1283.6
					c0.6-1,7.9-13,21.5-17.4c0.3-0.1,0.7-0.2,1-0.3c-0.7-1.5-1.4-3-2.1-4.5c-13.2,3.9-26,3.8-27.2,3.8c0,0.3,0,0.5,0,0.8
					C520.3,1272.7,522.9,1278.9,527.1,1283.6L527.1,1283.6z M520.9,1260.5c1.2,0,12.1,0.1,24.5-3.2c-4.4-7.8-9.1-14.3-9.8-15.3
					C528.1,1245.5,522.6,1252.3,520.9,1260.5L520.9,1260.5z M540.6,1240.2c0.7,1,5.5,7.5,9.9,15.5c9.4-3.5,13.4-8.9,13.9-9.5
					c-4.7-4.1-10.8-6.7-17.5-6.7C544.6,1239.5,542.5,1239.7,540.6,1240.2L540.6,1240.2z M567.2,1249.2c-0.6,0.8-5,6.4-14.8,10.4
					c0.6,1.3,1.2,2.5,1.8,3.8c0.2,0.5,0.4,0.9,0.6,1.4c8.8-1.1,17.6,0.7,18.4,0.9C573.2,1259.4,570.9,1253.7,567.2,1249.2
					L567.2,1249.2z"/>
			</defs>
			<use xlink:href="#XMLID_65_"  style="overflow:visible;fill-rule:evenodd;clip-rule:evenodd;fill:#FFFFFF;"/>
			<clipPath id="XMLID_2_">
				<use xlink:href="#XMLID_65_"  style="overflow:visible;"/>
			</clipPath>
		</g>
	</g>
</g>
<g>
	<g>
		<path class="st0" d="M259,1547.2c0-16.2-13.2-29.4-29.4-29.4s-29.4,13.2-29.4,29.4c0,12.9,8.3,23.8,19.8,27.8
			c0.7-0.5,1.5-1.1,1.5-2.2c0-1.6,0-5.8,0-5.8s-1.3,0.2-3.1,0.2c-4.6,0-6-2.9-6.7-4.5c-0.9-2.1-2.1-3.1-3.3-3.9
			c-0.8-0.5-0.9-1.1-0.1-1.2c4.1-0.8,5.1,4.6,7.8,5.4c1.9,0.6,4.4,0.3,5.7-0.5c0.2-1.6,1.3-3,2.3-3.8c-6.9-0.7-11-3-13.1-6.9
			l-0.2-0.4l-0.5-1.2l-0.2-0.4c-0.7-1.9-1-4.2-1-6.7c0-4.4,1.4-6.1,3.2-8.4c-1.4-5,0.5-8.5,0.5-8.5s3-0.6,8.6,3.4
			c3.1-1.3,11.2-1.4,15.1-0.3c2.4-1.6,6.7-3.8,8.4-3.1c0.5,0.8,1.5,3,0.6,7.8c0.6,1.1,3.7,3.3,3.7,9.7c0,2.4-0.3,4.4-0.8,6l-0.3,0.9
			c0,0-0.1,0.4-0.3,0.8l-0.2,0.4c-2,4.5-6.2,6.1-13,6.8c2.2,1.4,2.8,3.1,2.8,7.8c0,4.7-0.1,5.3,0,6.4c0,0.9,0.8,1.6,1.5,2.1
			C250.7,1571.1,259,1560.1,259,1547.2z"/>
	</g>
	<g>
		<path class="st0" d="M204.1,1588.9h-7c-0.2,0-0.3,0.1-0.3,0.3v3.4c0,0.2,0.1,0.3,0.3,0.3h2.7v4.3c0,0-0.6,0.2-2.3,0.2
			c-2,0-4.8-0.7-4.8-6.9c0-6.2,2.9-7,5.7-7c2.4,0,3.4,0.4,4,0.6c0.2,0.1,0.4-0.1,0.4-0.3l0.8-3.3c0-0.1,0-0.2-0.1-0.3
			c-0.3-0.2-1.9-1.1-5.9-1.1c-4.7,0-9.5,2-9.5,11.6c0,9.6,5.5,11,10.1,11c3.8,0,6.2-1.6,6.2-1.6c0.1-0.1,0.1-0.2,0.1-0.2v-10.7
			C204.5,1589,204.3,1588.9,204.1,1588.9z"/>
		<path class="st0" d="M240.3,1580.4c0-0.2-0.1-0.3-0.3-0.3H236c-0.2,0-0.3,0.1-0.3,0.3c0,0,0,7.6,0,7.6h-6.2v-7.6
			c0-0.2-0.1-0.3-0.3-0.3h-3.9c-0.2,0-0.3,0.1-0.3,0.3v20.7c0,0.2,0.1,0.3,0.3,0.3h3.9c0.2,0,0.3-0.1,0.3-0.3v-8.8h6.2
			c0,0,0,8.8,0,8.8c0,0.2,0.1,0.3,0.3,0.3h4c0.2,0,0.3-0.1,0.3-0.3V1580.4z"/>
		<g>
			<g>
				<ellipse class="st0" cx="209" cy="1583.1" rx="2.5" ry="2.6"/>
				<path class="st0" d="M211.3,1596.7c0-0.5,0-9.5,0-9.5c0-0.2-0.1-0.3-0.3-0.3H207c-0.2,0-0.3,0.2-0.3,0.4c0,0,0,11.5,0,13.7
					c0,0.4,0.3,0.5,0.6,0.5c0,0,1.7,0,3.5,0c0.4,0,0.5-0.2,0.5-0.5C211.3,1600.1,211.3,1597.2,211.3,1596.7z"/>
			</g>
		</g>
		<path class="st0" d="M255.3,1586.9h-3.9c-0.2,0-0.3,0.1-0.3,0.3v10.1c0,0-1,0.7-2.4,0.7c-1.4,0-1.8-0.6-1.8-2c0-1.4,0-8.8,0-8.8
			c0-0.2-0.1-0.3-0.3-0.3h-4c-0.2,0-0.3,0.1-0.3,0.3c0,0,0,5.4,0,9.5c0,4.1,2.3,5.1,5.4,5.1c2.6,0,4.7-1.4,4.7-1.4s0.1,0.8,0.1,0.8
			c0,0.1,0.2,0.2,0.3,0.2l2.5,0c0.2,0,0.3-0.1,0.3-0.3l0-13.9C255.6,1587,255.5,1586.9,255.3,1586.9z"/>
		<path class="st0" d="M266,1586.4c-2.2,0-3.7,1-3.7,1v-7c0-0.2-0.1-0.3-0.3-0.3h-4c-0.2,0-0.3,0.1-0.3,0.3v20.7
			c0,0.2,0.1,0.3,0.3,0.3c0,0,2.7,0,2.7,0c0.1,0,0.2-0.1,0.3-0.2c0.1-0.1,0.2-1,0.2-1s1.6,1.5,4.7,1.5c3.6,0,5.7-1.8,5.7-8.2
			S268.2,1586.4,266,1586.4z M264.4,1598c-1.4,0-2.3-0.7-2.3-0.7v-6.5c0,0,0.9-0.6,2-0.7c1.4-0.1,2.8,0.3,2.8,3.7
			C267,1597.4,266.3,1598.1,264.4,1598z"/>
		<path class="st0" d="M222.7,1586.8h-3c0,0,0-3.9,0-3.9c0-0.1-0.1-0.2-0.2-0.2h-4c-0.2,0-0.2,0.1-0.2,0.2v4c0,0-2,0.5-2.2,0.5
			c-0.1,0-0.2,0.2-0.2,0.3v2.5c0,0.2,0.1,0.3,0.3,0.3h2.1c0,0,0,2.7,0,6.1c0,4.5,3.2,5,5.3,5c1,0,2.2-0.3,2.4-0.4
			c0.1,0,0.2-0.2,0.2-0.3l0-2.8c0-0.2-0.2-0.3-0.3-0.3c-0.2,0-0.6,0.1-1.1,0.1c-1.5,0-1.9-0.7-1.9-1.6c0-0.9,0-5.8,0-5.8h3
			c0.2,0,0.3-0.1,0.3-0.3v-3.2C223,1587,222.8,1586.8,222.7,1586.8z"/>
	</g>
</g>
<g>
	<g>
		<path class="st0" d="M389,1520.1c7.9,0,8.8,0,11.9,0.2c2.9,0.1,4.4,0.6,5.5,1c1.4,0.5,2.4,1.2,3.4,2.2c1,1,1.7,2,2.2,3.4
			c0.4,1,0.9,2.6,1,5.5c0.1,3.1,0.2,4,0.2,11.9s0,8.8-0.2,11.9c-0.1,2.9-0.6,4.4-1,5.5c-0.5,1.4-1.2,2.4-2.2,3.4c-1,1-2,1.7-3.4,2.2
			c-1,0.4-2.6,0.9-5.5,1c-3.1,0.1-4,0.2-11.9,0.2s-8.8,0-11.9-0.2c-2.9-0.1-4.4-0.6-5.5-1c-1.4-0.5-2.4-1.2-3.4-2.2
			c-1-1-1.7-2-2.2-3.4c-0.4-1-0.9-2.6-1-5.5c-0.1-3.1-0.2-4-0.2-11.9s0-8.8,0.2-11.9c0.1-2.9,0.6-4.4,1-5.5c0.5-1.4,1.2-2.4,2.2-3.4
			c1-1,2-1.7,3.4-2.2c1-0.4,2.6-0.9,5.5-1C380.2,1520.2,381.1,1520.1,389,1520.1 M389,1514.8c-8,0-9,0-12.2,0.2
			c-3.1,0.1-5.3,0.6-7.2,1.4c-1.9,0.8-3.6,1.8-5.2,3.4c-1.6,1.6-2.6,3.3-3.4,5.2c-0.7,1.9-1.2,4-1.4,7.2c-0.1,3.1-0.2,4.2-0.2,12.2
			s0,9,0.2,12.2c0.1,3.1,0.6,5.3,1.4,7.2c0.8,1.9,1.8,3.6,3.4,5.2c1.6,1.6,3.3,2.6,5.2,3.4c1.9,0.7,4,1.2,7.2,1.4
			c3.1,0.1,4.2,0.2,12.2,0.2c8,0,9,0,12.2-0.2c3.1-0.1,5.3-0.6,7.2-1.4c1.9-0.8,3.6-1.8,5.2-3.4c1.6-1.6,2.6-3.3,3.4-5.2
			c0.7-1.9,1.2-4,1.4-7.2c0.1-3.1,0.2-4.2,0.2-12.2s0-9-0.2-12.2c-0.1-3.1-0.6-5.3-1.4-7.2c-0.8-1.9-1.8-3.6-3.4-5.2
			c-1.6-1.6-3.3-2.6-5.2-3.4c-1.9-0.7-4-1.2-7.2-1.4C398,1514.8,397,1514.8,389,1514.8z M389,1529.2c-8.4,0-15.2,6.8-15.2,15.2
			c0,8.4,6.8,15.2,15.2,15.2s15.2-6.8,15.2-15.2C404.2,1535.9,397.4,1529.2,389,1529.2z M389,1554.1c-5.4,0-9.8-4.4-9.8-9.8
			s4.4-9.8,9.8-9.8s9.8,4.4,9.8,9.8S394.4,1554.1,389,1554.1z M408.3,1528.6c0,2-1.6,3.5-3.5,3.5c-2,0-3.5-1.6-3.5-3.5
			s1.6-3.5,3.5-3.5C406.7,1525,408.3,1526.6,408.3,1528.6z"/>
	</g>
	<g>
		<path class="st0" d="M343.3,1580c-2.1,0.9-4.4,3.4-5.1,6.5c-0.9,3.9,2.9,5.6,3.2,5.1c0.4-0.6-0.7-0.9-0.9-2.9
			c-0.3-2.6,0.9-5.6,2.5-6.9c0.3-0.2,0.3,0.1,0.3,0.7c0,1.1-0.1,11.1-0.1,13.1c0,2.8-0.1,3.7-0.3,4.6c-0.2,0.9-0.6,1.5-0.3,1.7
			c0.3,0.3,1.5-0.4,2.2-1.3c0.9-1.2,1.2-2.6,1.2-4.2c0.1-1.9,0.1-4.8,0.1-6.5c0-1.6,0-6.1,0-8.8
			C346.1,1580.3,344.2,1579.6,343.3,1580"/>
		<path class="st0" d="M417.8,1593.2c-0.1,1.5-0.4,2.6-0.8,3.4c-0.8,1.6-2.4,2-3.1-0.2c-0.4-1.2-0.4-3.3-0.1-5
			c0.3-1.7,1-3.1,2.3-2.9C417.4,1588.6,418,1590.2,417.8,1593.2L417.8,1593.2z M396.8,1602.2c0,2.4-0.4,4.6-1.2,5.2
			c-1.2,0.9-2.7,0.2-2.4-1.6c0.3-1.6,1.6-3.2,3.6-5.1C396.8,1600.7,396.8,1601.2,396.8,1602.2L396.8,1602.2z M396.5,1593.1
			c-0.1,1.3-0.4,2.7-0.8,3.4c-0.8,1.6-2.4,2-3.1-0.2c-0.5-1.5-0.4-3.5-0.1-4.8c0.3-1.6,1-3.1,2.3-3.1
			C396.1,1588.5,396.7,1589.8,396.5,1593.1L396.5,1593.1z M384.4,1593.1c-0.1,1.4-0.4,2.6-0.8,3.4c-0.8,1.5-2.4,2-3.1-0.2
			c-0.5-1.6-0.3-3.8-0.1-5c0.3-1.8,1.1-3,2.3-2.9C383.9,1588.6,384.5,1590.2,384.4,1593.1L384.4,1593.1z M440.1,1594.8
			c-0.3,0-0.4,0.3-0.6,0.8c-0.4,1.8-0.8,2.3-1.4,2.3c-0.6,0-1.1-0.9-1.3-2.7c-0.1-1.4-0.1-4.1,0-6.7c0-0.5-0.1-1.1-1.6-1.6
			c-0.6-0.2-1.5-0.6-2,0.5c-1.3,3.1-1.8,5.5-1.9,6.5c0,0.1-0.1,0.1-0.1-0.1c-0.1-0.8-0.2-2.2-0.3-5.3c0-0.6-0.1-1.1-0.8-1.5
			c-0.4-0.3-1.7-0.7-2.2-0.2c-0.4,0.5-0.9,1.7-1.3,3.2c-0.4,1.2-0.7,2-0.7,2s0-3.2,0-4.4c0-0.5-0.3-0.6-0.4-0.6
			c-0.4-0.1-1.3-0.3-1.6-0.3c-0.4,0-0.5,0.2-0.5,0.6c0,0-0.1,4.2-0.1,7.2c0,0.1,0,0.3,0,0.4c-0.2,1.3-1,3.2-1.9,3.2
			c-0.9,0-1.3-0.8-1.3-4.3c0-2,0.1-2.9,0.1-4.4c0-0.8,0.1-1.5,0-1.6c0-0.5-0.8-0.7-1.2-0.8c-0.4-0.1-0.7-0.1-0.9-0.1
			c-0.4,0-0.6,0.3-0.6,0.6c0,0.2,0,0.5,0,0.5c-0.5-0.7-1.2-1.2-1.7-1.4c-1.3-0.4-2.7,0-3.7,1.4c-0.8,1.1-1.3,2.4-1.5,4.3
			c-0.1,1.4-0.1,2.7,0.2,3.9c-0.3,1.3-0.9,1.9-1.5,1.9c-0.9,0-1.5-1.5-1.5-4c0-1.7,0.4-2.8,0.7-4.5c0.2-0.7,0-1.1-0.3-1.5
			c-0.3-0.3-0.9-0.5-1.8-0.3c-0.6,0.1-1.5,0.3-2.4,0.4c0,0,0.1-0.2,0.1-0.6c0.2-1.8-1.8-1.7-2.4-1.1c-0.4,0.4-0.6,0.8-0.7,1.5
			c-0.2,1.2,0.8,1.7,0.8,1.7c-0.3,1.5-1.1,3.3-1.9,4.7c-0.4,0.7-0.8,1.3-1.2,1.9c0-0.2,0-0.4,0-0.6c0-3.1,0-5.5,0-6.3
			c0-0.8,0.1-1.5,0-1.6c0-0.3-0.2-0.5-0.6-0.6c-0.4-0.1-0.8-0.2-1.2-0.3c-0.6,0-0.9,0.2-0.9,0.6c0,0.1,0,0.5,0,0.5
			c-0.5-0.7-1.2-1.2-1.7-1.4c-1.3-0.4-2.7,0-3.7,1.4c-0.8,1.1-1.4,2.7-1.5,4.3c-0.1,1.4-0.1,2.6,0.1,3.7c-0.2,1-0.8,2.1-1.5,2.1
			c-0.9,0-1.4-0.8-1.4-4.3c0-2,0.1-2.9,0.1-4.4c0-0.8,0.1-1.5,0-1.6c0-0.5-0.8-0.7-1.2-0.8c-0.4-0.1-0.7-0.1-1-0.1
			c-0.3,0-0.6,0.3-0.6,0.5v0.5c-0.5-0.7-1.2-1.2-1.7-1.4c-1.3-0.4-2.7,0-3.7,1.4c-0.7,0.9-1.2,2-1.5,4.3c-0.1,0.7-0.1,1.3-0.1,1.9
			c-0.3,1.6-1.5,3.5-2.4,3.5c-0.6,0-1.1-1.1-1.1-3.5c0-3.1,0.2-7.6,0.2-8c0,0,1.2,0,1.5,0c0.6,0,1.2,0,2,0c0.4,0,0.8-1.5,0.4-1.7
			c-0.2-0.1-1.5-0.2-2.1-0.2c-0.5,0-1.7-0.1-1.7-0.1s0.1-3,0.1-3.3c0-0.3-0.3-0.4-0.5-0.5c-0.5-0.2-0.9-0.3-1.4-0.4
			c-0.7-0.1-1,0-1.1,0.6c-0.1,0.9-0.1,3.5-0.1,3.5c-0.5,0-2.2-0.1-2.7-0.1c-0.5,0-1,2-0.3,2c0.7,0,2.1,0.1,2.9,0.1c0,0,0,4.5,0,5.9
			c0,0.1,0,0.3,0,0.4c-0.5,2.5-2.2,3.8-2.2,3.8c0.4-1.6-0.4-2.9-1.7-3.9c-0.5-0.4-1.4-1.1-2.5-1.9c0,0,0.6-0.6,1.2-1.9
			c0.4-0.9,0.4-1.9-0.6-2.1c-1.6-0.4-2.9,0.8-3.3,2c-0.3,1-0.1,1.7,0.5,2.4c0,0.1,0.1,0.1,0.1,0.2c-0.4,0.7-0.9,1.6-1.3,2.3
			c-1.2,2-2,3.6-2.7,3.6c-0.5,0-0.5-1.6-0.5-3.1c0-1.3,0.1-3.3,0.2-5.3c0-0.7-0.3-1-0.9-1.4c-0.3-0.2-1.1-0.6-1.5-0.6
			c-0.6,0-2.4,0.1-4.2,5.1c-0.2,0.6-0.6,1.8-0.6,1.8l0-6c0-0.1-0.1-0.3-0.2-0.4c-0.3-0.2-1.1-0.5-1.8-0.5c-0.3,0-0.5,0.2-0.5,0.5
			l-0.1,9.3c0,0.7,0,1.5,0.1,1.9c0.1,0.4,0.2,0.7,0.3,0.8c0.1,0.2,0.3,0.3,0.6,0.4c0.2,0.1,1.6,0.2,1.7-0.3c0.1-0.6,0.1-1.3,0.8-3.8
			c1.1-3.9,2.6-5.8,3.2-6.5c0.1-0.1,0.3-0.1,0.2,0.1c0,0.9-0.1,3-0.2,4.8c-0.2,4.9,0.7,5.8,2,5.8c1,0,2.3-1,3.8-3.4
			c0.9-1.5,1.8-3,2.4-4.1c0.4,0.4,0.9,0.9,1.4,1.3c1.2,1.1,1.5,2.1,1.3,3.1c-0.2,0.8-0.9,1.5-2.2,0.8c-0.4-0.2-0.5-0.4-0.9-0.6
			c-0.2-0.1-0.5-0.2-0.7,0c-0.5,0.4-0.8,0.8-0.9,1.4c-0.2,0.6,0.4,0.9,1,1.1c0.5,0.2,1.6,0.4,2.3,0.4c2.7,0.1,4.8-1.3,6.3-4.8
			c0.3,3.1,1.4,4.8,3.4,4.8c1.3,0,2.6-1.7,3.2-3.4c0.2,0.7,0.4,1.3,0.7,1.8c1.5,2.4,4.5,1.9,6-0.2c0.5-0.6,0.5-0.9,0.5-0.9
			c0.2,1.9,1.8,2.6,2.7,2.6c1,0,2-0.5,2.7-2.1c0.1,0.2,0.2,0.3,0.3,0.5c1.5,2.4,4.5,1.9,6-0.2c0.1-0.1,0.1-0.2,0.2-0.3l0,1.3
			c0,0-0.8,0.8-1.4,1.3c-2.3,2.1-4,3.7-4.2,5.5c-0.2,2.4,1.8,3.2,3.2,3.4c1.5,0.1,2.9-0.7,3.7-1.9c0.7-1,1.2-3.3,1.1-5.5
			c0-0.9,0-2-0.1-3.2c0.8-0.9,1.7-2.1,2.5-3.5c0.9-1.5,1.9-3.5,2.4-5.1c0,0,0.8,0,1.7-0.1c0.3,0,0.4,0,0.3,0.3
			c-0.1,0.3-1.1,4.4-0.2,7.2c0.7,1.9,2.2,2.5,3.1,2.5c1.1,0,2.1-0.8,2.6-2c0.1,0.1,0.1,0.3,0.2,0.4c1.5,2.4,4.5,1.9,6-0.2
			c0.3-0.5,0.5-0.9,0.5-0.9c0.3,2,1.9,2.6,2.8,2.6c0.9,0,1.8-0.4,2.5-2.1c0,0.7,0.1,1.4,0.2,1.5c0,0.1,0.3,0.3,0.5,0.3
			c0.8,0.3,1.7,0.2,2,0.1c0.2,0,0.4-0.2,0.4-0.7c0.1-1.2,0-3.2,0.4-4.7c0.6-2.5,1.2-3.5,1.5-4c0.2-0.3,0.3-0.3,0.3,0
			c0,0.6,0,2.3,0.3,4.6c0.2,1.7,0.4,2.7,0.6,3c0.5,0.9,1.1,0.9,1.7,0.9c0.3,0,1-0.1,1-0.7c0-0.3,0-2,0.6-4.5
			c0.4-1.6,1.1-3.1,1.3-3.6c0.1-0.2,0.1,0,0.1,0c-0.1,1.1-0.2,4.8,0.3,6.8c0.6,2.7,2.4,3,3,3c1.3,0,2.4-1,2.8-3.7
			C440.6,1595.3,440.5,1594.8,440.1,1594.8L440.1,1594.8z"/>
	</g>
</g>
<g>
	<g>
		<path class="st0" d="M281.8,1726.8c-1.2,0-2.4,0-3.6,0c0,4.9,0,8,0,12.9c-1.5-4.7-3.1-7.9-4.6-12.9c-1.3,0-2.1,0-3.4,0
			c0,7.6,0,15.2,0,22.8c1.2-0.2,2.4-0.3,3.6-0.5c0-4.8,0-7.7,0-12.5c1.6,4.7,2.6,7.5,4.2,11.9c1.2-0.1,2.6-0.3,3.9-0.4
			C281.8,1741.1,281.8,1734,281.8,1726.8"/>
		<path class="st0" d="M295.2,1726.8c-3.3,0-6.6,0-9.9,0c0,7,0,14,0,21c3.3-0.3,6.6-0.5,10-0.7c0-1,0-2.5,0-3.5
			c-2.2,0.1-4.2,0.3-6.4,0.4c0-1.9,0-3.4,0-5.3c1.6,0,3.2,0,4.8,0c0-1,0-2.5,0-3.5c-1.6,0-3.3,0-4.8,0.1c0-1.9,0-2.9,0-4.8
			c1,0,2,0,2.9,0c0.2,0,0.3,0,0.5,0c0.2,0,0.3,0,0.5,0c0.8,0,1.6,0,2.4,0C295.2,1729.3,295.2,1727.9,295.2,1726.8"/>
		<path class="st0" d="M308.6,1726.9c-3.6,0-7.4,0-11,0c0,1,0,2.5,0,3.5c0.2,0,0.3,0,0.5,0c0.5,0,1,0,1.4,0c0.5,0,1,0,1.4,0
			c0.1,0,0.2,0,0.4,0c0,5.7,0,10.8,0,16.5c1.2,0,2.4-0.1,3.6-0.1c0-5.6,0-10.8,0-16.4c1.2,0,2.5,0,3.7,0
			C308.6,1729.3,308.6,1727.9,308.6,1726.9"/>
		<path class="st0" d="M320.9,1726.8c-3.3,0-6.6,0-10,0c0,6.6,0,13.2,0,19.8c0.4,0,0.8,0,1.2,0c0.8,0,1.6,0,2.4,0c0-2.8,0-5.4,0-8.2
			c0.2,0,0.4,0,0.6,0c0.5,0,0.9,0,1.4,0c0.5,0,0.9,0,1.4,0c0.5,0,1,0,1.4,0c0-1,0-2.5,0-3.5c-0.4,0-0.9,0-1.4,0c-0.5,0-1,0-1.5,0
			c-0.5,0-1,0-1.5,0c-0.2,0-0.4,0-0.5,0c0-1.8,0-2.8,0-4.6c0.4,0,0.8,0,1.2,0c0.4,0,0.8,0,1.2,0c0.4,0,0.8,0,1.2,0c1,0,1.9,0,2.9,0
			C320.9,1729.4,320.9,1727.8,320.9,1726.8"/>
		<path class="st0" d="M323.2,1726.9c0,6.7,0,13.3,0,20c3.2,0.1,6.5,0.2,9.7,0.5c0-1,0-2.5,0-3.5c-2-0.1-4.1-0.3-6.1-0.3
			c0-5.7,0-10.9,0-16.6C325.6,1726.9,324.3,1726.9,323.2,1726.9"/>
		<path class="st0" d="M335.8,1726.9c0,6.9,0,13.8,0,20.7c1.2,0.1,2.4,0.2,3.5,0.3c0-7,0-14,0-21
			C338.2,1726.9,337,1726.9,335.8,1726.9"/>
		<path class="st0" d="M342.4,1726.9c1.4,3.5,2.7,7,4.2,10.7c-1.5,3.6-3,7.1-4.6,10.5c1.2,0.1,2.5,0.3,3.8,0.4
			c0.9-2.2,1.7-3.9,2.6-6.1c0.9,2.4,1.7,4.3,2.6,6.7c1.2,0.2,2.9,0.4,4.1,0.6c-1.5-4-3.2-8.2-4.7-12c1.5-3.6,3.1-7,4.6-10.7
			c-1.3,0-2.6,0-3.9,0c-1,2.3-1.6,3.8-2.6,6c-0.9-2.3-1.4-3.8-2.3-6C345.1,1726.9,343.7,1726.9,342.4,1726.9"/>
	</g>
	<path class="st3" d="M290.7,1650.9c3.4,0,6.8,0,10.2,0c1,0,3.1-0.3,3.5,0.3c2.7,7.5,5.4,15.1,8.1,22.6c0.7,1.9,1.5,6.1,2.7,7.4
		c0-0.1,0-0.1,0-0.2c0-10,0-20,0-30.1c4.5,0,9,0.1,13.5,0.1c0,22.9,0,45.9,0,68.8c-4.6-0.1-9.1-1.1-14-1.1
		c-3.4-9.7-6.9-19.4-10.3-29.2c-0.1,0.1-0.2,0.2-0.3,0.3c0.5,0.6,0.2,5.8,0.2,7.1c0,7.3-0.1,14.5-0.1,21.8c-4.8,0-9.1,1-13.5,1.1
		C290.7,1696.8,290.7,1673.9,290.7,1650.9z"/>
</g>
<path class="st0" d="M512.7,1422.5h-6.8v11.3c0,0.5-0.2,0.9-0.5,1.3c-0.3,0.3-0.7,0.5-1.3,0.5h-3.9c-0.6,0-1-0.2-1.3-0.5
	c-0.3-0.4-0.5-0.8-0.5-1.3v-11.3h-6.8v11.9c0,1.6,0.3,2.9,1,4c0.7,1.1,1.5,1.9,2.7,2.5c1.2,0.6,2.5,0.9,4,0.9h6.6v-0.1
	c1.4,0,2.6-0.3,3.7-0.9c1-0.6,1.8-1.5,2.3-2.6c0.5-1.1,0.8-2.4,0.8-3.8L512.7,1422.5L512.7,1422.5z M445,1423.2
	c-1.2-0.5-2.5-0.7-3.9-0.7h-4.4l-1.7,0.2c-0.4,0.1-0.6,0.2-0.6,0.2v-9.1h-6.7v28h6.7v-11.3c0-0.5,0.2-0.9,0.6-1.3s0.7-0.5,1.3-0.5
	h3.9c0.5,0,0.9,0.2,1.3,0.5c0.4,0.3,0.5,0.8,0.6,1.3v11.3h6.7v-12.2c0-1.7-0.4-3.1-1-4.1C447,1424.5,446.1,1423.7,445,1423.2z
	 M467.9,1433.8c0,0.5-0.2,0.9-0.5,1.3c-0.4,0.3-0.8,0.5-1.3,0.5h-3.9c-0.5,0-0.9-0.2-1.3-0.5c-0.4-0.4-0.5-0.8-0.6-1.3v-11.3h-6.7
	v11.9c0,1.6,0.3,2.9,0.9,4c0.6,1.1,1.5,1.9,2.7,2.5c1.2,0.6,2.5,0.9,4.1,0.9h6.6v-0.1c1.4,0,2.6-0.3,3.6-0.9c1-0.6,1.8-1.5,2.3-2.6
	c0.5-1.1,0.8-2.4,0.8-3.8v-11.9h-6.8V1433.8L467.9,1433.8z M479.7,1441.8h6.7v-28h-6.7V1441.8L479.7,1441.8z"/>
<g>
	<g id="Layer_1_1_">
		<g>
			<polygon class="st4" points="362.1,568.2 442.7,576.2 442.7,513.7 362.1,521.8 			"/>
			<polygon class="st5" points="442.7,513.7 458.2,516.9 458.2,573 442.7,576.2 			"/>
			<polygon class="st4" points="362.1,568.2 281.4,576.2 281.4,513.7 362.1,521.8 			"/>
			<polygon class="st5" points="281.4,513.7 266,516.9 266,573 281.4,576.2 			"/>
			<polygon class="st6" points="382.7,588.8 413.3,582.5 413.3,507.6 382.7,501.3 373.1,542.9 			"/>
			<polygon class="st6" points="341.4,588.8 310.8,582.5 310.8,507.6 341.4,501.3 351.1,542.8 			"/>
			<rect x="341.4" y="501.3" class="st0" width="41.3" height="87.5"/>
		</g>
	</g>
</g>
<g id="Layer_1_2_">
	<g>
		<polygon class="st5" points="422.8,674.9 441.4,682.6 441.4,671.7 422.7,659.2 422.7,674.9 422.8,674.9 		"/>
		<g>
			<polygon class="st6" points="387.1,752.1 422.7,741.9 422.7,659.1 387,648.9 			"/>
			<polygon class="st6" points="336.3,752.1 300.7,741.9 300.7,659.1 336.3,648.9 			"/>
			<rect x="336.3" y="648.9" class="st0" width="50.7" height="103.2"/>
			<polygon class="st5" points="422.7,726.2 422.7,741.9 441.4,729.3 441.4,718.4 422.8,726.2 			"/>
			<polygon class="st5" points="422.7,719.5 422.8,719.5 441.4,713.8 441.4,702.8 422.7,703.8 			"/>
			<polygon class="st5" points="422.8,681.5 422.7,681.5 422.7,697.2 441.4,698.2 441.4,687.2 			"/>
			<polygon class="st7" points="441.4,698.2 422.7,697.2 387,696.4 361.7,696.4 336.3,696.4 300.7,697.2 300.7,681.6 300.6,681.6 
				300.7,681.5 336.3,676.8 361.7,676.8 387,676.8 422.7,681.5 435.8,685.5 435.8,683 441.4,682.6 422.7,674.9 387,668.5 
				361.7,668.5 336.3,668.5 300.7,674.9 300.7,659.2 282,671.7 282,682.7 282.1,682.6 287.5,683 287.5,685.6 282,687.3 282,698.2 
				282.1,698.2 287.5,698.2 287.5,702.8 282.9,702.9 282,702.8 282,713.7 287.5,715.4 287.5,718.1 282.2,718.4 282,718.3 282,729.3 
				300.7,741.9 300.7,726.2 336.3,732.5 361.7,732.5 387,732.5 422.8,726.2 441.4,718.5 435.8,718.1 435.8,715.5 422.8,719.5 
				387,724.2 387,724.3 361.7,724.3 336.3,724.3 336.3,724.2 300.5,719.5 300.5,719.5 300.7,719.5 300.7,703.8 336.3,704.6 
				336.3,704.6 361.7,704.6 387,704.6 387,704.6 422.7,703.8 441.4,702.9 435.8,702.8 435.8,698.2 			"/>
		</g>
	</g>
</g>
<g>
	<g>
		<g>
			<g>
				<path class="st0" d="M449.8,423.1c-1.1,0-2.2-1.1-2.2-2.5v-85.3c0-1.5,1.1-2.8,2.2-2.8h13.4c1.1,0,1.9,1.3,1.9,2.8v85.3
					c0,1.5-0.9,2.5-1.9,2.5H449.8z"/>
				<circle class="st8" cx="456.6" cy="346.5" r="4.1"/>
				<circle class="st8" cx="456.6" cy="358.5" r="4.1"/>
				<rect x="454.6" y="366" class="st9" width="4" height="32.1"/>
				<path class="st0" d="M427.1,423.1c-1.1,0-2.1-1.1-2.1-2.5v-85.3c0-1.5,1-2.8,2.1-2.8h13.4c1.1,0,2,1.3,2,2.8v85.3
					c0,1.5-1,2.5-2,2.5H427.1z"/>
				<circle class="st8" cx="433.9" cy="346.5" r="4.1"/>
				<circle class="st8" cx="433.9" cy="358.5" r="4.1"/>
				<rect x="431.5" y="366" class="st9" width="4" height="32.1"/>
				<path class="st0" d="M404.5,423.1c-1.1,0-2-1.1-2-2.5v-85.3c0-1.5,0.9-2.8,2-2.8h13.4c1.1,0,2.2,1.3,2.2,2.8v85.3
					c0,1.5-1.1,2.5-2.2,2.5H404.5z"/>
				<circle class="st8" cx="411.2" cy="346.5" r="4.1"/>
				<circle class="st8" cx="411.2" cy="358.5" r="4.1"/>
				<rect x="409" y="366" class="st9" width="4" height="32.1"/>
			</g>
			<circle class="st0" cx="362" cy="378.4" r="12.4"/>
			<line class="st2" x1="402.5" y1="378" x2="374.4" y2="378"/>
			<path class="st2" d="M362.4,391"/>
		</g>
	</g>
</g>
<g>
	<path class="st0" d="M506.5,381.9c-1.1,0-1.8,0-2.6,0.1c0.2-1,0.2-1.6,0.2-3v-12.8c0-1,0-1.7-0.2-2.5c0.7,0,1.2,0,2.6,0h5.1
		c3.5,0,5.4,1.6,5.4,4.4c0,1.4-0.4,2.4-1.3,3.2c-0.5,0.4-0.9,0.6-1.9,1c1.1,0.2,1.7,0.5,2.3,1c1,0.8,1.5,2.1,1.5,3.6
		c0,3.2-2.1,5-5.8,5H506.5z M511.6,371.4c2.2,0,3.6-1.2,3.6-3.2c0-2-1.2-3-3.6-3h-5.6v6.2H511.6z M505.9,380.2h5.8
		c2.6,0,4-1.2,4-3.6c0-2.4-1.4-3.6-4.1-3.6h-5.7V380.2z"/>
	<path class="st0" d="M532.2,374.3c-1.2,0-1.8,0-2.5,0.1v-1.9c0.7,0.1,1.3,0.1,2.6,0.1h0.7c1.1,0,1.8,0,2.5-0.1
		c-0.1,1-0.2,1.6-0.2,2.7v2.2c0,1.1,0,1.7,0.2,2.7c-1.4,0.8-2.2,1.2-3.3,1.5c-1,0.3-2.4,0.5-3.6,0.5c-2.3,0-4.1-0.6-5.5-1.8
		c-1.9-1.7-3-4.4-3-7.7c0-5.8,3.3-9.5,8.4-9.5c2.1,0,3.9,0.6,5.1,1.8c0.8,0.7,1.2,1.4,1.8,2.7l-1.9,0.6c-0.9-2.4-2.5-3.5-5-3.5
		c-4,0-6.4,3-6.4,7.8c0,2.6,0.7,4.7,2,6.1c1.1,1.2,2.6,1.7,4.5,1.7c1.9,0,3.4-0.4,4.8-1.3v-4.8H532.2z"/>
	<path class="st0" d="M539,381.9c0.1-0.9,0.2-1.6,0.2-2.7v-12.9c0-1,0-1.7-0.2-2.7c0.9,0,1.5,0.1,2.6,0.1h4.9c3.7,0,5.8,1.9,5.8,5.2
		c0,3.5-2.2,5.6-5.9,5.6h-5.4v4.7c0,1.2,0,1.9,0.2,2.7H539z M546.4,372.8c2.5,0,4-1.4,4-3.8c0-2.4-1.4-3.7-4-3.7h-5.4v7.5H546.4z"/>
	<path class="st0" d="M568.3,380c1.3-0.4,1.8-0.5,3.3-1.1l0,1.4c-3.2,1.1-4.2,1.3-8,2.3c-0.3,0.1-0.6,0.2-1,0.3l-0.5-1.6
		c0.4,0,0.9-0.1,1.7-0.2v-6.1c0-1.2,0-1.8-0.1-2.5h1.6c-0.1,0.5-0.1,1.1-0.1,2.5v5.8c0.4-0.1,1.1-0.2,1.8-0.4v-10.3h-1.2
		c-1,0-1.7,0-2.2,0.1c0.1-0.6,0.1-1.3,0.1-2.2v-3c0-1,0-1.7-0.1-2.4c0.6,0.1,1.4,0.1,2.3,0.1h3c1,0,1.7,0,2.3-0.1
		c-0.1,0.6-0.1,1.2-0.1,2.4v3.1c0,1.1,0,1.6,0.1,2c-0.5,0-0.5,0-2.1-0.1h-0.7v3.6h0.9c0.9,0,1.3,0,1.7-0.1v1.5
		c-0.5-0.1-1-0.1-1.7-0.1h-0.9V380z M565,368.9h4.6v-4.7H565V368.9z M583,365c-0.2,0.4-0.3,0.5-0.6,1c-1.3,2.2-2,3.3-3.4,4.8
		c1.6,1.3,3.3,2.3,5.8,3.3c-0.3,0.4-0.6,0.9-0.8,1.5c-2.7-1.3-4.3-2.3-6-3.8c-1.2,1.1-2.8,2.2-4.8,3.4c0.1,0,0.1,0,0.2,0
		c0.3,0,0.8,0,1.7,0h5.2c1,0,1.4,0,2,0c-0.1,0.5-0.1,0.9-0.1,2.1v4.3c0,1.3,0,1.9,0.1,2.5h-1.6v-1.3h-6v1.3h-1.6
		c0.1-0.6,0.1-1.2,0.1-2.4v-4.3c0-1.1,0-1.5-0.1-2.1c-0.6,0.3-0.6,0.4-1.2,0.7c-0.3-0.6-0.4-0.8-0.9-1.3c2.7-1.3,4.2-2.3,5.9-3.8
		c-1-1.1-1.7-2-2.5-3.5c-0.6,0.7-1.1,1.3-2.3,2.4c-0.4-0.6-0.6-0.8-1-1.1c2.3-1.9,4.1-4.4,4.7-6.7l1.5,0.4c-0.6,1.2-0.9,1.8-1,2h3.4
		c1.2,0,1.8,0,2.3-0.1L583,365z M574.7,381.4h6v-4.9h-6V381.4z M575.7,365.4c-0.1,0.2-0.2,0.2-0.4,0.6c0.6,1.3,1.7,2.8,2.6,3.7
		c1.3-1.3,2.1-2.5,3.1-4.3H575.7z"/>
	<path class="st0" d="M604.2,366.8c1,0,1.7,0,2.4-0.1c-0.1,0.7-0.1,1.3-0.1,2.2v12.6c0,0.8,0,1.6,0.1,2.4H605v-1.4h-15.9v1.4h-1.7
		c0.1-0.8,0.1-1.5,0.1-2.4v-12.7c0-0.8,0-1.4-0.1-2.1c0.7,0.1,1.4,0.1,2.4,0.1h6.3v-2.4c0-0.9,0-1.7-0.2-2.4h1.9
		c-0.1,0.8-0.2,1.5-0.2,2.4v2.4H604.2z M589.1,368.2v5.5h7v-5.5H589.1z M589.1,375.1v6h7v-6H589.1z M605,373.7v-5.5h-7.3v5.5H605z
		 M605,381v-6h-7.3v6H605z"/>
</g>
<g>
	<path class="st0" d="M521.6,529.5c0.8,0,1.3,0,1.8-0.1c-0.1,0.6-0.1,1.1-0.1,1.9v6.6c0,0.8,0,1.4,0.1,2.1h-1.7v-1.6h-7.2v5.6
		c0,1.4,0,2,0.2,2.7h-1.9c0.1-0.8,0.2-1.4,0.2-2.7v-5.6h-6.8v1.6h-1.7c0.1-0.7,0.1-1.4,0.1-2.1v-6.6c0-0.7,0-1.3-0.1-1.9
		c0.6,0.1,1,0.1,1.8,0.1h6.7v-2.1c0-1.2,0-1.8-0.2-2.5h1.9c-0.1,0.7-0.2,1.4-0.2,2.4v2.1H521.6z M513,531h-6.8v6h6.8V531z
		 M514.6,537h7.2v-6h-7.2V537z"/>
	<path class="st0" d="M535.6,543.3c-2.3,0.7-4.5,1.2-7.2,1.7c-0.8,0.2-0.9,0.2-1.2,0.3l-0.4-1.7c0.1,0,0.1,0,0.2,0
		c0.4,0,1.5-0.1,2.6-0.3c2.1-0.4,4.3-0.9,6-1.5L535.6,543.3z M532.5,525.7c-0.4,0.7-0.4,0.7-1.3,2.9c-0.4,0.9-1.6,3-2.2,4
		c1.8-0.1,1.8-0.1,4-0.3c0.5-0.7,0.7-1.2,1.3-2.3l1.5,0.8c-0.8,1.2-1.1,1.7-3,4.2c-0.9,1.2-1.4,1.8-2.9,3.4c3.7-0.6,3.8-0.7,5.6-1.1
		l-0.2,1.5c-0.1,0-1.2,0.2-5.6,1c-0.6,0.1-1,0.2-1.7,0.4l-0.5-1.6c0.1,0,0.1,0,0.5-0.1c0.4-0.1,0.8-0.5,1.8-1.8
		c1.8-2.3,1.8-2.3,2.3-3c-2.9,0.2-4,0.3-4.7,0.6l-0.4-1.5c0.6-0.1,0.9-0.4,1.8-2.3c0.7-1.5,1.8-3.9,2.2-5.4L532.5,525.7z
		 M546.6,544.2c1,0,1.8,0,2.4-0.2v1.7c-0.7-0.1-1.5-0.1-2.5-0.1h-8.6l-1.6,0.1c0.1-0.3,0.1-0.3,0.1-0.5c0-0.3,0-0.3,0-1
		c0-0.2,0-0.2,0-0.7v-15.6c0-0.9,0-1.4-0.1-2.1h1.7c-0.1,0.7-0.1,1.1-0.1,2.1v16.4H546.6z M544,540.8c0,1.2,0,1.7,0.1,2.4h-1.6
		c0.1-0.7,0.1-1.3,0.1-2.4v-2.4c0-1.9,0-1.9,0.2-3c-1,2.7-1.9,4.2-3.8,6.2c-0.4-0.6-0.5-0.7-1-1.1c2-1.8,3.4-3.8,4.3-6.2h-1.7
		c-0.9,0-1.3,0-1.9,0.1V533c0.6,0.1,1.2,0.1,1.9,0.1h2v-5.8c0-0.9,0-1.4-0.1-2.1h1.6c-0.1,0.7-0.1,1.1-0.1,2.1v5.8h2.5
		c1,0,1.5,0,2.1-0.1v1.5c-0.6-0.1-1.2-0.1-2-0.1l-0.1,0H544v0.7c2,2.2,2.6,2.8,4.7,5.5l-1.1,1c-1.1-1.7-2.4-3.5-3.6-4.9V540.8z
		 M539.9,526.8c0.8,1.9,1.2,2.9,1.7,4.8l-1.2,0.6c-0.5-2-0.9-3.3-1.7-4.9L539.9,526.8z M548.1,527.3c-0.6,2.1-1.2,3.4-2.1,5
		l-1.1-0.6c1-1.7,1.4-3,1.9-5L548.1,527.3z"/>
	<path class="st0" d="M554.4,538.6c-0.1,1.6-0.3,3.2-0.6,4.4c-0.3,1.5-0.7,2.5-1.5,3.8c-0.4-0.5-0.7-0.8-1.2-1.2
		c0.7-1.2,1.1-2.1,1.4-3.6c0.5-2.4,0.6-5.9,0.6-13c0-1.7,0-2.5-0.1-3.2c0.7,0.1,1.2,0.1,2.1,0.1h2.6c0.8,0,1.4,0,1.9-0.1
		c-0.1,0.6-0.1,1.2-0.1,2.4v16.1c0,1.5-0.5,1.9-2.1,1.9c-0.7,0-1.4,0-2.2-0.1c0-0.6-0.1-0.9-0.3-1.5c0.9,0.2,1.6,0.2,2.4,0.2
		c0.6,0,0.7-0.1,0.7-0.7v-5.6H554.4z M554.5,533c0,0.8,0,1.4,0,1.8c0,1.5,0,1.5,0,2.5h3.6V533H554.5z M558.1,531.6v-4.3h-3.6v4.3
		H558.1z M571.9,534.7c-0.1,0.3-0.2,0.6-0.3,1c-0.7,2.3-1.5,4.1-2.8,6.1c1.4,1.6,2.5,2.4,4.1,3.3c-0.5,0.6-0.7,0.8-1,1.5
		c-1.7-1.2-2.8-2.1-4.1-3.6c-1.1,1.4-2.1,2.4-3.6,3.6c-0.3-0.5-0.6-0.9-1.1-1.2c1.5-1,2.6-2,3.8-3.5c-1.5-2.1-2.2-3.7-3-6.6h-1v9
		c0,1.3,0,1.9,0.1,2.5h-1.7c0.1-0.8,0.1-1.5,0.1-2.6v-15.9c0-0.9,0-1.5-0.1-2.1c0.6,0.1,1.2,0.1,2.2,0.1h6c1,0,1.5,0,2.1-0.1
		c0,0.4,0,0.4-0.1,0.9c-0.2,2.6-0.4,3.9-0.8,4.4c-0.4,0.5-1,0.7-2.3,0.7c-0.6,0-1.3,0-1.9-0.1c-0.1-0.6-0.1-0.9-0.3-1.4
		c0.9,0.2,1.6,0.2,2.3,0.2c0.6,0,0.9-0.1,1.1-0.3c0.2-0.2,0.4-1.2,0.5-2.2l0-0.7h-7.2v6.4h6.3c0.9,0,1.4,0,1.8-0.1L571.9,534.7z
		 M565.4,535.3c0.4,1.5,0.5,1.9,1.1,3c0.4,0.9,0.8,1.6,1.4,2.4c1.2-1.8,1.8-3.3,2.3-5.3H565.4z"/>
	<path class="st0" d="M579.2,539.5c-1.2,0-1.8,0-2.4,0.1V538c0.6,0.1,1.3,0.1,2.5,0.1h5.4c0.2-0.7,0.3-1.4,0.3-1.9
		c0-0.1,0-0.2,0-0.4l1.8,0.1c-0.1,0.3-0.1,0.3-0.3,1.6c0,0.2-0.1,0.4-0.1,0.6h5.9c1.2,0,1.8,0,2.5-0.1c0,0.2,0,0.2-0.1,0.9
		c-0.2,2.4-0.6,4.5-1.1,5.8c-0.2,0.6-0.6,1-1.1,1.2c-0.4,0.1-1.1,0.2-2.1,0.2c-0.8,0-1.5,0-2.8-0.2c-0.1-0.7-0.2-1.1-0.5-1.6
		c1.3,0.2,2.3,0.3,3.3,0.3c1.2,0,1.6-0.2,1.9-1.2c0.4-1,0.6-2.2,0.7-4h-7.1c-1.4,3.9-4.2,5.9-9.6,7.2c-0.2-0.6-0.5-1-0.8-1.4
		c5.1-0.9,7.6-2.4,8.9-5.7H579.2z M593.7,528.3c-0.2,0.2-0.3,0.3-1.4,1.5c-1.2,1.3-2.5,2.4-4,3.2c2.4,0.9,4.7,1.4,8.5,1.9
		c-0.4,0.6-0.5,0.8-0.7,1.5c-3.4-0.5-5.5-1-7.8-1.8c-0.6-0.2-0.7-0.3-1.6-0.7c-2.6,1.1-5.8,1.9-10,2.6c-0.2-0.6-0.3-0.9-0.7-1.4
		c3.5-0.4,6.4-1,9.1-2.1c-1.8-1.2-2.5-1.8-3.9-3.4c-1.5,1.3-2.4,1.9-4.2,2.8c-0.5-0.6-0.5-0.6-1-1.1c2.4-1.2,4.1-2.4,5.6-4.1
		c0.8-0.9,1.4-1.7,1.6-2.3l1.7,0.4c-0.4,0.5-0.6,0.8-0.8,1.1c-0.4,0.5-0.4,0.6-0.7,0.9h7.2c1,0,1.6,0,2.2-0.1L593.7,528.3z
		 M582,528.7c1.5,1.7,2.9,2.7,4.7,3.6c1.7-0.8,3-1.9,4.6-3.6L582,528.7L582,528.7z"/>
	<path class="st0" d="M618.2,534.2c1,0,1.7,0,2.4-0.1v1.6c-0.7-0.1-1.4-0.1-2.4-0.1h-4.8c1.1,1,1.7,1.4,2.9,2.1c1.6,0.9,2.9,1.5,5,2
		c-0.5,0.6-0.5,0.6-0.8,1.3c-0.9-0.3-1.7-0.6-2.2-0.9v4.6c0,0.8,0,1.6,0.1,2.1h-1.6v-1.2h-4.7v1.2h-1.5c0.1-0.6,0.1-1.1,0.1-1.8
		v-4.5c0-0.8,0-1.3-0.1-1.9c0.6,0.1,1.2,0.1,2,0.1h2.9c-1.4-0.8-2.7-1.8-3.9-3.2H608c-1.2,1.2-2.4,2.3-3.8,3.2h2.7
		c0.8,0,1.4,0,2-0.1c-0.1,0.6-0.1,1.1-0.1,1.9v4.2c0,0.7,0,1.3,0.1,1.8h-1.5v-1h-4.3v1.2h-1.6c0.1-0.6,0.1-1.3,0.1-2.1v-4.6
		c-1,0.5-1.1,0.5-2,0.9c-0.1-0.3-0.3-0.8-0.7-1.3c1.7-0.6,2.3-0.8,3.5-1.5c1.5-0.8,2.5-1.6,3.7-2.7h-4.3c-1,0-1.8,0-2.4,0.1V534
		c0.7,0.1,1.3,0.1,2.4,0.1h5.5c0.7-0.9,1.1-1.4,1.3-2c-0.3,0-0.9,0-1.9,0H603c-0.7,0-1.4,0-2,0.1c0.1-0.6,0.1-1.2,0.1-1.9v-2.6
		c0-0.7,0-1.3-0.1-2c0.6,0.1,1.2,0.1,2.1,0.1h3.7c0.9,0,1.5,0,2-0.1c-0.1,0.6-0.1,1.2-0.1,1.9v2.8c0,0.9,0,1.1,0,1.6
		c0.1-0.2,0.1-0.3,0.2-0.5l1.6,0.4c-0.2,0.3-0.3,0.5-0.4,0.7c-0.6,1-0.7,1.1-1,1.5h5.8c0,0,0,0-0.4-0.6c-0.3-0.4-0.3-0.4-0.6-0.7
		l1.2-0.6c0.4,0.5,0.4,0.5,1.5,2H618.2z M602.4,530.9h4.8v-3.8h-4.8V530.9z M603.1,544.4h4.3v-4.5h-4.3V544.4z M618.8,530.3
		c0,0.8,0,1.3,0.1,1.9c-0.7-0.1-1.3-0.1-2.1-0.1h-3.9c-0.8,0-1.5,0-2.1,0.1c0.1-0.6,0.1-1.1,0.1-1.7v-2.8c0-0.7,0-1.3-0.1-1.9
		c0.6,0.1,1.2,0.1,2,0.1h3.9c0.9,0,1.4,0,2.1-0.1c-0.1,0.6-0.1,1.1-0.1,2V530.3z M612.1,544.4h4.7v-4.5h-4.7V544.4z M612.4,530.9h5
		v-3.8h-5V530.9z"/>
</g>
<g>
	<path class="st0" d="M517.3,704.2c-1.1-1.1-2.1-1.8-3.9-2.7l0.9-1.1c1.7,0.9,2.6,1.5,3.9,2.6L517.3,704.2z M518.7,706.6
		c-0.7,1.4-1.3,2.3-2.1,3.6c-0.3,0.5-0.3,0.5-1.8,2.3l-1.3-1.2c1.6-1.3,2.9-3.2,4.1-5.8L518.7,706.6z M526.7,693v-0.5
		c0-0.6,0-1.1-0.1-1.5h1.7c-0.1,0.5-0.1,0.9-0.1,1.5v0.5h4.1c1.1,0,1.8,0,2.4-0.1v1.6c-0.7-0.1-1.4-0.1-2.4-0.1h-4.1v0.3
		c0,0.7,0,1.1,0.1,1.5h-1.7c0.1-0.4,0.1-0.9,0.1-1.5v-0.3H521v0.4c0,0.6,0,1.1,0.1,1.5h-1.6c0.1-0.4,0.1-0.9,0.1-1.5v-0.4h-3.7
		c-1,0-1.7,0-2.4,0.1v-1.6c0.7,0.1,1.4,0.1,2.5,0.1h3.6v-0.5c0-0.6,0-1.1-0.1-1.5h1.6c-0.1,0.5-0.1,0.9-0.1,1.5v0.5H526.7z
		 M518.1,699.7c-1.2-1.2-2-1.8-3.7-2.8l0.9-1.1c1.6,0.9,2.4,1.5,3.7,2.7L518.1,699.7z M529.8,697.2c0.8,0,1.3,0,1.8-0.1l0.8,0.8
		c-0.2,0.3-0.3,0.3-0.7,0.8c-1.1,1.3-2.2,2.4-3.6,3.5c2,1.2,4.2,1.9,6.9,2.5c-0.3,0.5-0.5,0.9-0.7,1.5c-3.3-1-5.4-1.8-7.3-3.1
		c-1.5,1-2.9,1.7-5.1,2.6c0.4,0,0.8,0,1.2,0h7.8c0.5,0,0.9,0,1.4,0c-0.1,0.4-0.1,0.6-0.1,1.4v3.7c0,0.9,0,1.4,0.1,1.9h-1.6v-1.1
		h-7.6v1.1h-1.5c0.1-0.4,0.1-1,0.1-1.8v-3.8c0-0.7,0-1.1,0-1.3c-0.6,0.2-0.9,0.3-1.8,0.6c-0.2-0.5-0.4-0.7-0.8-1.2
		c2.8-0.7,4.6-1.5,6.9-2.9c-1.1-0.9-1.5-1.3-2.6-2.5c-1,1-1.7,1.5-3,2.3c-0.3-0.4-0.5-0.6-1-1c1.5-0.8,2.3-1.5,3.2-2.4
		c1-1,1.6-1.8,2.4-3.4l1.5,0.5c-0.5,0.7-0.6,1-0.9,1.5H529.8z M530.6,710.4V707h-7.7v3.4H530.6z M524.4,698.4
		c-0.2,0.3-0.2,0.3-0.3,0.4c0.8,1,1.7,1.8,2.8,2.7c1.4-1.1,2.3-1.9,3.3-3.1H524.4z"/>
	<path class="st0" d="M542.4,697.6c1,0,1.5,0,1.9-0.1v1.6c-0.6-0.1-1.1-0.1-1.9-0.1h-0.6v7.5c1.1-0.5,1.5-0.7,2.7-1.4l0.1,1.5
		c-2.3,1.3-3.5,1.8-6.2,2.9c-0.3,0.1-0.7,0.3-1,0.4l-0.4-1.7c0.9-0.1,1.4-0.3,3.2-1.1v-8.2h-0.9c-1,0-1.4,0-2,0.1v-1.6
		c0.6,0.1,1,0.1,2,0.1h0.9V694c0-1.1,0-2-0.1-2.7h1.8c-0.1,0.8-0.1,1.5-0.1,2.7v3.6H542.4z M545.5,701.2c-1.3,0.5-1.4,0.5-2,0.8
		l-0.4-1.6c0.7-0.1,1.3-0.2,2.1-0.5l0.9-0.3v-3.8c0-1,0-1.8-0.1-2.4h1.8c-0.1,0.7-0.1,1.4-0.1,2.4v3.4l3.4-1.2v-4.4
		c0-0.9,0-1.5-0.1-2.2h1.8c-0.1,0.7-0.1,1.4-0.1,2.3v3.9l3.7-1.2c0.7-0.2,1.2-0.5,1.9-0.7c-0.2,4.9-0.4,7.2-0.6,8.4
		c-0.2,1-0.5,1.4-1,1.7c-0.4,0.2-0.8,0.3-1.5,0.3c-0.3,0-0.6,0-1.2-0.1c-0.1-0.6-0.2-1-0.4-1.5c0.6,0.1,1.2,0.2,1.8,0.2
		c0.6,0,0.7-0.1,0.8-0.8c0.2-0.9,0.3-2.8,0.4-6.1l-4,1.4v6.6c0,1,0,1.6,0.1,2.3h-1.8c0.1-0.7,0.1-1.3,0.1-2.3v-6.1l-3.4,1.2v9
		c0,0.6,0.1,0.8,0.7,0.9c0.6,0.2,1.6,0.2,3.9,0.2c3.4,0,4.4-0.1,4.8-0.7c0.3-0.5,0.5-1.6,0.5-3.3c0.6,0.3,0.8,0.5,1.5,0.6
		c-0.3,4.4-0.7,4.7-7,4.7c-5,0-6-0.4-6-2.2V701L545.5,701.2z"/>
	<path class="st0" d="M564.4,704.6c-0.1,1.6-0.3,3.2-0.6,4.4c-0.3,1.5-0.7,2.5-1.5,3.8c-0.4-0.5-0.7-0.8-1.2-1.2
		c0.7-1.2,1.1-2.1,1.4-3.6c0.5-2.4,0.6-5.9,0.6-13c0-1.7,0-2.5-0.1-3.2c0.7,0.1,1.2,0.1,2.1,0.1h2.6c0.8,0,1.4,0,1.9-0.1
		c-0.1,0.6-0.1,1.2-0.1,2.4v16.1c0,1.5-0.5,1.9-2.1,1.9c-0.7,0-1.4,0-2.2-0.1c0-0.6-0.1-0.9-0.3-1.5c0.9,0.2,1.6,0.2,2.4,0.2
		c0.6,0,0.7-0.1,0.7-0.7v-5.6H564.4z M564.5,699c0,0.8,0,1.4,0,1.8c0,1.5,0,1.5,0,2.5h3.6V699H564.5z M568.1,697.6v-4.3h-3.6v4.3
		H568.1z M581.9,700.7c-0.1,0.3-0.2,0.6-0.3,1c-0.7,2.3-1.5,4.1-2.8,6.1c1.4,1.6,2.5,2.4,4.1,3.3c-0.5,0.6-0.7,0.8-1,1.5
		c-1.7-1.2-2.8-2.1-4.1-3.6c-1.1,1.4-2.1,2.4-3.6,3.6c-0.3-0.5-0.6-0.9-1.1-1.2c1.5-1,2.6-2,3.8-3.5c-1.5-2.1-2.2-3.7-3-6.6h-1v9
		c0,1.3,0,1.9,0.1,2.5h-1.7c0.1-0.8,0.1-1.5,0.1-2.6v-15.9c0-0.9,0-1.5-0.1-2.1c0.6,0.1,1.2,0.1,2.2,0.1h6c1,0,1.5,0,2.1-0.1
		c0,0.4,0,0.4-0.1,0.9c-0.2,2.6-0.4,3.9-0.8,4.4c-0.4,0.5-1,0.7-2.3,0.7c-0.6,0-1.3,0-1.9-0.1c-0.1-0.6-0.1-0.9-0.3-1.4
		c0.9,0.2,1.6,0.2,2.3,0.2c0.6,0,0.9-0.1,1.1-0.3c0.2-0.2,0.4-1.2,0.5-2.2l0-0.7h-7.2v6.4h6.3c0.9,0,1.4,0,1.8-0.1L581.9,700.7z
		 M575.4,701.3c0.4,1.5,0.5,1.9,1.1,3c0.4,0.9,0.8,1.6,1.4,2.4c1.2-1.8,1.8-3.3,2.3-5.3H575.4z"/>
	<path class="st0" d="M589.2,705.5c-1.2,0-1.8,0-2.4,0.1V704c0.6,0.1,1.3,0.1,2.5,0.1h5.4c0.2-0.7,0.3-1.4,0.3-1.9
		c0-0.1,0-0.2,0-0.4l1.8,0.1c-0.1,0.3-0.1,0.3-0.3,1.6c0,0.2-0.1,0.4-0.1,0.6h5.9c1.2,0,1.8,0,2.5-0.1c0,0.2,0,0.2-0.1,0.9
		c-0.2,2.4-0.6,4.5-1.1,5.8c-0.2,0.6-0.6,1-1.1,1.2c-0.4,0.1-1.1,0.2-2.1,0.2c-0.8,0-1.5,0-2.8-0.2c-0.1-0.7-0.2-1.1-0.5-1.6
		c1.3,0.2,2.3,0.3,3.3,0.3c1.2,0,1.6-0.2,1.9-1.2c0.4-1,0.6-2.2,0.7-4h-7.1c-1.4,3.9-4.2,5.9-9.6,7.2c-0.2-0.6-0.5-1-0.8-1.4
		c5.1-0.9,7.6-2.4,8.9-5.7H589.2z M603.7,694.3c-0.2,0.2-0.3,0.3-1.4,1.5c-1.2,1.3-2.5,2.4-4,3.2c2.4,0.9,4.7,1.4,8.5,1.9
		c-0.4,0.6-0.5,0.8-0.7,1.5c-3.4-0.5-5.5-1-7.8-1.8c-0.6-0.2-0.7-0.3-1.6-0.7c-2.6,1.1-5.8,1.9-10,2.6c-0.2-0.6-0.3-0.9-0.7-1.4
		c3.5-0.4,6.4-1,9.1-2.1c-1.8-1.2-2.5-1.8-3.9-3.4c-1.5,1.3-2.4,1.9-4.2,2.8c-0.5-0.6-0.5-0.6-1-1.1c2.4-1.2,4.1-2.4,5.6-4.1
		c0.8-0.9,1.4-1.7,1.6-2.3l1.7,0.4c-0.4,0.5-0.6,0.8-0.8,1.1c-0.4,0.5-0.4,0.6-0.7,0.9h7.2c1,0,1.6,0,2.2-0.1L603.7,694.3z
		 M592,694.7c1.5,1.7,2.9,2.7,4.7,3.6c1.7-0.8,3-1.9,4.6-3.6L592,694.7L592,694.7z"/>
	<path class="st0" d="M628.2,700.2c1,0,1.7,0,2.4-0.1v1.6c-0.7-0.1-1.4-0.1-2.4-0.1h-4.8c1.1,1,1.7,1.4,2.9,2.1c1.6,0.9,2.9,1.5,5,2
		c-0.5,0.6-0.5,0.6-0.8,1.3c-0.9-0.3-1.7-0.6-2.2-0.9v4.6c0,0.8,0,1.6,0.1,2.1h-1.6v-1.2h-4.7v1.2h-1.5c0.1-0.6,0.1-1.1,0.1-1.8
		v-4.5c0-0.8,0-1.3-0.1-1.9c0.6,0.1,1.2,0.1,2,0.1h2.9c-1.4-0.8-2.7-1.8-3.9-3.2H618c-1.2,1.2-2.4,2.3-3.8,3.2h2.7
		c0.8,0,1.4,0,2-0.1c-0.1,0.6-0.1,1.1-0.1,1.9v4.2c0,0.7,0,1.3,0.1,1.8h-1.5v-1h-4.3v1.2h-1.6c0.1-0.6,0.1-1.3,0.1-2.1v-4.6
		c-1,0.5-1.1,0.5-2,0.9c-0.1-0.3-0.3-0.8-0.7-1.3c1.7-0.6,2.3-0.8,3.5-1.5c1.5-0.8,2.5-1.6,3.7-2.7h-4.3c-1,0-1.8,0-2.4,0.1V700
		c0.7,0.1,1.3,0.1,2.4,0.1h5.5c0.7-0.9,1.1-1.4,1.3-2c-0.3,0-0.9,0-1.9,0H613c-0.7,0-1.4,0-2,0.1c0.1-0.6,0.1-1.2,0.1-1.9v-2.6
		c0-0.7,0-1.3-0.1-2c0.6,0.1,1.2,0.1,2.1,0.1h3.7c0.9,0,1.5,0,2-0.1c-0.1,0.6-0.1,1.2-0.1,1.9v2.8c0,0.9,0,1.1,0,1.6
		c0.1-0.2,0.1-0.3,0.2-0.5l1.6,0.4c-0.2,0.3-0.3,0.5-0.4,0.7c-0.6,1-0.7,1.1-1,1.5h5.8c0,0,0,0-0.4-0.6c-0.3-0.4-0.3-0.4-0.6-0.7
		l1.2-0.6c0.4,0.5,0.4,0.5,1.5,2H628.2z M612.4,696.9h4.8v-3.8h-4.8V696.9z M613.1,710.4h4.3v-4.5h-4.3V710.4z M628.8,696.3
		c0,0.8,0,1.3,0.1,1.9c-0.7-0.1-1.3-0.1-2.1-0.1h-3.9c-0.8,0-1.5,0-2.1,0.1c0.1-0.6,0.1-1.1,0.1-1.7v-2.8c0-0.7,0-1.3-0.1-1.9
		c0.6,0.1,1.2,0.1,2,0.1h3.9c0.9,0,1.4,0,2.1-0.1c-0.1,0.6-0.1,1.1-0.1,2V696.3z M622.1,710.4h4.7v-4.5h-4.7V710.4z M622.4,696.9h5
		v-3.8h-5V696.9z"/>
</g>
<g>
	<g>
		<polygon class="st2" points="445.1,175 445.1,145.7 419.7,131 394.3,145.7 394.3,175 419.7,189.6 		"/>
	</g>
	<g>
		<polygon class="st2" points="415.1,225 415.1,195.7 389.7,181 364.3,195.7 364.3,225 389.7,239.6 		"/>
	</g>
	<g>
		<polygon class="st2" points="358.1,226 358.1,196.7 332.7,182 307.3,196.7 307.3,226 332.7,240.6 		"/>
	</g>
	<g>
		<polygon class="st2" points="327.1,177 327.1,147.7 301.7,133 276.3,147.7 276.3,177 301.7,191.6 		"/>
	</g>
	<g>
		<path class="st0" d="M419.4,160.8c3.1,0,5.6-3,5.6-6.8c0-3.7-0.8-6.8-5.6-6.8c-4.8,0-5.6,3-5.6,6.8
			C413.9,157.8,416.4,160.8,419.4,160.8z"/>
		<path class="st0" d="M408.9,171.2C408.9,171,408.9,171.1,408.9,171.2L408.9,171.2z"/>
		<path class="st0" d="M430,171.4C430,171.3,430,170.9,430,171.4L430,171.4z"/>
		<path class="st0" d="M430,170.9c-0.1-6.5-1-8.4-7.5-9.6c0,0-0.9,1.2-3.1,1.2s-3.1-1.2-3.1-1.2c-6.5,1.2-7.4,3-7.5,9.4
			c0,0.5,0,0.5,0,0.5c0,0.1,0,0.3,0,0.7c0,0,1.6,3.1,10.6,3.1c9,0,10.6-3.1,10.6-3.1c0-0.2,0-0.4,0-0.5
			C430,171.4,430,171.3,430,170.9z"/>
	</g>
	<g>
		<path class="st0" d="M301.4,160.8c3.1,0,5.6-3,5.6-6.8c0-3.7-0.8-6.8-5.6-6.8c-4.8,0-5.6,3-5.6,6.8
			C295.9,157.8,298.4,160.8,301.4,160.8z"/>
		<path class="st0" d="M290.9,171.2C290.9,171,290.9,171.1,290.9,171.2L290.9,171.2z"/>
		<path class="st0" d="M312,171.4C312,171.3,312,170.9,312,171.4L312,171.4z"/>
		<path class="st0" d="M312,170.9c-0.1-6.5-1-8.4-7.5-9.6c0,0-0.9,1.2-3.1,1.2s-3.1-1.2-3.1-1.2c-6.5,1.2-7.4,3-7.5,9.4
			c0,0.5,0,0.5,0,0.5c0,0.1,0,0.3,0,0.7c0,0,1.6,3.1,10.6,3.1c9,0,10.6-3.1,10.6-3.1c0-0.2,0-0.4,0-0.5
			C312,171.4,312,171.3,312,170.9z"/>
	</g>
	<g>
		<path class="st0" d="M333.4,209.8c3.1,0,5.6-3,5.6-6.8c0-3.7-0.8-6.8-5.6-6.8c-4.8,0-5.6,3-5.6,6.8
			C327.9,206.8,330.4,209.8,333.4,209.8z"/>
		<path class="st0" d="M322.9,220.2C322.9,220,322.9,220.1,322.9,220.2L322.9,220.2z"/>
		<path class="st0" d="M344,220.4C344,220.3,344,219.9,344,220.4L344,220.4z"/>
		<path class="st0" d="M344,219.9c-0.1-6.5-1-8.4-7.5-9.6c0,0-0.9,1.2-3.1,1.2s-3.1-1.2-3.1-1.2c-6.5,1.2-7.4,3-7.5,9.4
			c0,0.5,0,0.5,0,0.5c0,0.1,0,0.3,0,0.7c0,0,1.6,3.1,10.6,3.1c9,0,10.6-3.1,10.6-3.1c0-0.2,0-0.4,0-0.5
			C344,220.4,344,220.3,344,219.9z"/>
	</g>
	<g>
		<path class="st0" d="M389.4,212.8c3.1,0,5.6-3,5.6-6.8c0-3.7-0.8-6.8-5.6-6.8c-4.8,0-5.6,3-5.6,6.8
			C383.9,209.8,386.4,212.8,389.4,212.8z"/>
		<path class="st0" d="M378.9,223.2C378.9,223,378.9,223.1,378.9,223.2L378.9,223.2z"/>
		<path class="st0" d="M400,223.4C400,223.3,400,222.9,400,223.4L400,223.4z"/>
		<path class="st0" d="M400,222.9c-0.1-6.5-1-8.4-7.5-9.6c0,0-0.9,1.2-3.1,1.2s-3.1-1.2-3.1-1.2c-6.5,1.2-7.4,3-7.5,9.4
			c0,0.5,0,0.5,0,0.5c0,0.1,0,0.3,0,0.7c0,0,1.6,3.1,10.6,3.1c9,0,10.6-3.1,10.6-3.1c0-0.2,0-0.4,0-0.5
			C400,223.4,400,223.3,400,222.9z"/>
	</g>
</g>
<g>
</g>
<g>
</g>
<g>
</g>
<g>
</g>
<g>
</g>
<g>
</g>
<g>
</g>
<g>
</g>
<g>
</g>
<g>
</g>
<g>
</g>
<g>
</g>
<g>
</g>
<g>
</g>
<g>
</g>
</svg>
